<?xml version="1.0" encoding="utf-8"?>
<!-- Generator: Adobe Illustrator 22.1.0, SVG Export Plug-In . SVG Version: 6.00 Build 0)  -->
<svg version="1.1" id="Layer_1" xmlns="http://www.w3.org/2000/svg" xmlns:xlink="http://www.w3.org/1999/xlink" x="0px" y="0px"
	 viewBox="0 0 100.4 75.3" style="enable-background:new 0 0 100.4 75.3;" xml:space="preserve">
<style type="text/css">
	.st0{fill:none;}
	.st1{fill:#FFFFFF;}
</style>
<rect id="backgroundrect" y="0" class="st0" width="100.4" height="75.3"/>
<title>Layer 1</title>
<g id="svg_1">
	<path id="svg_2" class="st1" d="M68.6,47.7c0,0-1.5,15.5-1.9,18.2h5.2c0,0,0.6-4.2,2-16.1c0.3-2.2,0.6-6.5,0.6-6.5L68.6,47.7z"/>
	<path id="svg_3" class="st1" d="M54.3,8C60.9,6.6,66,9.3,68.1,22.6c0.6,3.9,0.9,8.5,0.9,12.9c2-1.6,3.9-3.1,5.7-4.6v-0.2
		c-0.2-5.3-0.8-10.4-1.9-15.2C70.6,5.3,64.1,1,57.4,1c-0.9,0-1.8,0.1-2.8,0.3L54.3,8z"/>
	<path id="svg_4" class="st1" d="M57.5,1c-7.7,0-21.8,6.6-36,22.1C5.4,40.5,1.6,54.2,1.6,61.4S6.4,74.3,15,74.3s22.6-5.5,43.3-19.4
		S99,23.6,99,23.6l-4.3-9.9c-4.4,3.6-24,22.4-50.1,39.2c-25,16.1-33,13.5-34.1,11.4c-0.9-1.7-2.8-7.9,7.4-24.3s26-28,34-31.1
		c2-0.8,3.8-1.2,5.5-1.3L57.5,1z"/>
</g>
</svg>
