<?xml version="1.0" encoding="utf-8"?>
<!-- Generator: Adobe Illustrator 22.1.0, SVG Export Plug-In . SVG Version: 6.00 Build 0)  -->
<svg version="1.1" id="Layer_1" xmlns="http://www.w3.org/2000/svg" xmlns:xlink="http://www.w3.org/1999/xlink" x="0px" y="0px"
	 viewBox="0 0 225.8 250.9" style="enable-background:new 0 0 225.8 250.9;" xml:space="preserve">
<style type="text/css">
	.st0{fill:none;}
	.st1{fill:#FFFFFF;}
</style>
<rect id="backgroundrect" y="0" class="st0" width="225.8" height="250.9"/>
<g>
	<title>Layer 1</title>
	<path id="svg_3" class="st1" d="M164.9,97.4c-12.9,6.1-25.7,12.1-38.6,18.2c-2.2,1-4.3,2.3-6.4,3.4c-10.1,5.5-9.7,5.4-7.6,17
		c5.9,33.1,14.9,65.4,21.8,98.2c0.3,1.3,0.5,2.6,0.5,3.9c0.4,7.1-3.2,10.5-10.3,9.6c-6.2-0.8-10.9-4.7-15.1-9
		c-19.8-20.6-39.5-41.2-59.3-61.9c-4.9-5.1-4.9-5.1-9.7,0.2c-8,8.7-14.1,18.7-18.9,29.5c-0.8,1.7-1,4.4-3.7,4.4
		c-2.3,0-3.5-2.1-4.5-3.8c-5.6-9.3-7.7-19.7-8.8-30.3C1.5,149.9,10,126.1,24.6,104c5.6-8.5,11.8-16.6,19.4-23.9
		c-1.5,5.8-3,11.6-4.5,17.4c-1.1,4-1.4,8.1-1.1,12.2c0.5,8.7,7.3,13.4,15.6,10.8c7-2.2,12.4-6.7,17.9-11.2
		c8.5-7,16.6-14.5,26.3-19.8c5.5-3,11.2-5,17.5-5.3c25.2-1.2,50.4,1,75.6,0.7c0.3,0,0.6,0.3,1.6,0.8c-5.7,3.7-11.8,5.4-17.8,7.5
		C171.8,94.8,168.3,96,164.9,97.4z"/>
	<path id="svg_7" class="st1" d="M62.1,55.6C40.2,69.1,25,88.5,11,110.6c-4.6-14-4.4-26.4,1.1-38.6c1.2-2.7,3.4-4.4,6.1-5.5
		c7.4-3.1,14.7-6.4,22.2-9.1c3.4-1.2,5.8-3.2,7.9-5.9c16.2-20.1,36.4-35,59.3-46.5c2-1,4.5-2.6,6.1-0.7c1.2,1.5-0.8,3.7-1.8,5.5
		c-4.7,9-7.3,18.7-8.5,28.8c-0.5,4.1,0.7,5.8,5.1,5.5c22.9-1.8,45.9-1.2,68.8,0.5c11.9,0.9,23.8,2,35.2,5.7
		c7.1,2.3,10.7,6.4,10.6,11.4c-0.1,6.1-4.6,11.2-11.5,13.5c-8,2.6-16.2,2.2-24.4,2.1c-21.8-0.3-43.7-0.5-65.5-1.2
		c-16.1-0.5-30,4.8-42.6,14.2C74,94.1,69,97.9,63.7,101.4c-3.7,2.4-8,5.1-12.4,1.9c-4.6-3.3-2.9-8.1-1.9-12.4
		c2.3-9.8,6.2-19.1,10-28.4C60.4,60.3,61.2,57.9,62.1,55.6z"/>
	<path id="svg_10" class="st1" d="M164.9,97.4c3.1-2.2,6.5-3.7,10.3-4.2C172.2,95.8,168.8,97.3,164.9,97.4z"/>
</g>
</svg>
