<?xml version="1.0" encoding="UTF-8"?>
<svg width="22px" height="18px" viewBox="0 0 22 18" version="1.1" xmlns="http://www.w3.org/2000/svg" xmlns:xlink="http://www.w3.org/1999/xlink">
    <!-- Generator: Sketch 51.3 (57544) - http://www.bohemiancoding.com/sketch -->
    <title>Combined Shape Copy</title>
    <desc>Created with Sketch.</desc>
    <defs></defs>
    <g id="Desktop" stroke="none" stroke-width="1" fill="none" fill-rule="evenodd">
        <path d="M0.8,11 L5.2,11 C5.6418278,11 6,11.3581722 6,11.8 L6,17.2 C6,17.6418278 5.6418278,18 5.2,18 L0.8,18 C0.3581722,18 4.20696571e-16,17.6418278 -2.22044605e-16,17.2 L1.11022302e-16,11.8 C5.69140024e-17,11.3581722 0.3581722,11 0.8,11 Z M8.8,0 L13.2,0 C13.6418278,-8.11624501e-17 14,0.3581722 14,0.8 L14,17.2 C14,17.6418278 13.6418278,18 13.2,18 L8.8,18 C8.3581722,18 8,17.6418278 8,17.2 L8,0.8 C8,0.3581722 8.3581722,7.47296265e-16 8.8,6.66133815e-16 Z M16.8,5 L21.2,5 C21.6418278,5 22,5.3581722 22,5.8 L22,17.2 C22,17.6418278 21.6418278,18 21.2,18 L16.8,18 C16.3581722,18 16,17.6418278 16,17.2 L16,5.8 C16,5.3581722 16.3581722,5 16.8,5 Z" id="Combined-Shape-Copy" fill="#F5A623" fill-rule="nonzero"></path>
    </g>
</svg>