<?xml version="1.0" encoding="UTF-8"?>
<svg width="22px" height="18px" viewBox="0 0 22 18" version="1.1" xmlns="http://www.w3.org/2000/svg" xmlns:xlink="http://www.w3.org/1999/xlink">
    <!-- Generator: Sketch 51.3 (57544) - http://www.bohemiancoding.com/sketch -->
    <title>Combined Shape</title>
    <desc>Created with Sketch.</desc>
    <defs></defs>
    <g id="Desktop" stroke="none" stroke-width="1" fill="none" fill-rule="evenodd">
        <path d="M0.8,11.6 C0.68954305,11.6 0.6,11.6895431 0.6,11.8 L0.6,17.2 C0.6,17.3104569 0.68954305,17.4 0.8,17.4 L5.2,17.4 C5.31045695,17.4 5.4,17.3104569 5.4,17.2 L5.4,11.8 C5.4,11.6895431 5.31045695,11.6 5.2,11.6 L0.8,11.6 Z M8.8,0.6 C8.68954305,0.6 8.6,0.68954305 8.6,0.8 L8.6,17.2 C8.6,17.3104569 8.68954305,17.4 8.8,17.4 L13.2,17.4 C13.3104569,17.4 13.4,17.3104569 13.4,17.2 L13.4,0.8 C13.4,0.68954305 13.3104569,0.6 13.2,0.6 L8.8,0.6 Z M16.8,5.6 C16.6895431,5.6 16.6,5.68954305 16.6,5.8 L16.6,17.2 C16.6,17.3104569 16.6895431,17.4 16.8,17.4 L21.2,17.4 C21.3104569,17.4 21.4,17.3104569 21.4,17.2 L21.4,5.8 C21.4,5.68954305 21.3104569,5.6 21.2,5.6 L16.8,5.6 Z" id="Combined-Shape" stroke="#3C3C3C" stroke-width="1.2" fill="#FFFFFF" fill-rule="nonzero"></path>
    </g>
</svg>