<?xml version="1.0" encoding="UTF-8"?>
<svg width="13px" height="14px" viewBox="0 0 13 14" version="1.1" xmlns="http://www.w3.org/2000/svg" xmlns:xlink="http://www.w3.org/1999/xlink">
    <!-- Generator: Sketch 52.2 (67145) - http://www.bohemiancoding.com/sketch -->
    <title>f</title>
    <desc>Created with Sketch.</desc>
    <g id="Desktop" stroke="none" stroke-width="1" fill="none" fill-rule="evenodd" opacity="0.6">
        <g id="Main-Page/1" transform="translate(-515.000000, -3333.000000)" fill="#FFFFFF">
            <g id="Footer" transform="translate(0.000000, 3218.000000)">
                <path d="M525.446441,115.214272 C526.777358,115.214272 527.857158,116.294072 527.857158,117.624989 L527.857158,125.660713 C527.857158,126.991629 526.777358,128.07143 525.446441,128.07143 L523.872778,128.07143 L523.872778,123.090955 L525.538517,123.090955 L525.789633,121.148989 L523.872778,121.148989 L523.872778,119.910148 C523.872778,119.349321 524.023448,118.972647 524.835391,118.972647 L525.856598,118.964276 L525.856598,117.231573 C525.680816,117.206462 525.069766,117.156238 524.366641,117.156238 C522.885054,117.156238 521.863847,118.060257 521.863847,119.717625 L521.863847,121.148989 L520.189738,121.148989 L520.189738,123.090955 L521.863847,123.090955 L521.863847,128.07143 L517.410717,128.07143 C516.0798,128.07143 515,126.991629 515,125.660713 L515,117.624989 C515,116.294072 516.0798,115.214272 517.410717,115.214272 L525.446441,115.214272 Z" id="f"></path>
            </g>
        </g>
    </g>
</svg>