<?xml version="1.0" encoding="UTF-8"?>
<svg width="84px" height="18px" viewBox="0 0 84 18" version="1.1" xmlns="http://www.w3.org/2000/svg" xmlns:xlink="http://www.w3.org/1999/xlink">
    <!-- Generator: Sketch 52.2 (67145) - http://www.bohemiancoding.com/sketch -->
    <title>Group 5</title>
    <desc>Created with Sketch.</desc>
    <g id="Desktop" stroke="none" stroke-width="1" fill="none" fill-rule="evenodd" opacity="0.8">
        <g id="Main-Page/1" transform="translate(-732.000000, -3332.000000)">
            <g id="Footer" transform="translate(0.000000, 3218.000000)">
                <g id="Group-5" transform="translate(732.000000, 114.000000)">
                    <path d="M24.6671105,6.23631509 L21,5.15487316 L21.7310253,2.89586115 L25.3022636,4.45794393 L25.0386152,0.252336449 L27.4354194,0.252336449 L27.1358189,4.54205607 L30.6231691,3.01602136 L31.3422104,5.29906542 L27.6391478,6.38050734 L30.0958722,9.55273698 L28.1664447,10.9586115 L26.0932091,7.43791722 L24.0439414,10.8384513 L22.10253,9.49265688 L24.6671105,6.23631509 Z M44.8841545,10.8384513 C44.8841545,13.201614 44.3368896,14.9859753 43.2423435,16.1915888 C42.1477975,17.3972023 40.6737776,18 38.8202397,18 C36.950723,18 35.4687139,17.3972023 34.3741678,16.1915888 C33.2796217,14.9859753 32.7323569,13.201614 32.7323569,10.8384513 L32.7323569,7.16154873 C32.7323569,4.79838605 33.2756271,3.01402472 34.3621838,1.80841121 C35.4487405,0.60279771 36.926755,0 38.7962716,0 C40.6577989,0 42.1378108,0.60480036 43.2363515,1.81441923 C44.3348923,3.02403809 44.8841545,4.80639677 44.8841545,7.16154873 L44.8841545,10.8384513 Z M40.8455393,6.88518024 C40.8455393,5.54738984 40.6697754,4.58611774 40.3182423,4.00133511 C39.9667093,3.41655248 39.4593908,3.12416555 38.7962716,3.12416555 C38.1251631,3.12416555 37.6198419,3.41655248 37.2802929,4.00133511 C36.940744,4.58611774 36.770972,5.54738984 36.770972,6.88518024 L36.770972,11.0907877 C36.770972,12.4526103 36.9427413,13.4238956 37.286285,14.0046729 C37.6298286,14.5854502 38.1411417,14.8758344 38.8202397,14.8758344 C39.4833588,14.8758344 39.9866827,14.5854502 40.3302264,14.0046729 C40.67377,13.4238956 40.8455393,12.4526103 40.8455393,11.0907877 L40.8455393,6.88518024 Z M55.5739015,17.7476636 L51.5352863,17.7476636 L51.5352863,4.32576769 L47.6404794,4.32576769 L47.6404794,1.46595461 L55.5739015,0.240320427 L55.5739015,17.7476636 Z M73.334221,3.376502 C71.5925346,5.37117152 70.3901498,7.31774752 69.7270306,9.21628838 C69.0639115,11.1148293 68.5965393,13.3938452 68.3249001,16.0534045 L68.1571238,17.7476636 L64.1065246,17.7476636 L64.2623169,16.0534045 C64.5019985,13.5540596 65.0492634,11.2349907 65.9041278,9.09612817 C66.7589923,6.95726567 67.9414039,5.05074268 69.4513981,3.376502 L60.7509987,3.376502 L60.7509987,0.252336449 L73.334221,0.252336449 L73.334221,3.376502 Z M84,17.7476636 L79.9613848,17.7476636 L79.9613848,4.32576769 L76.0665779,4.32576769 L76.0665779,1.46595461 L84,0.240320427 L84,17.7476636 Z" id="*0171" fill="#FFFFFF"></path>
                    <path d="M17,14.4261364 C17,14.8607955 16.8068182,15.7059659 16.6257102,16.1044034 C16.3721591,16.6960227 15.6960227,17.0823864 15.1526989,17.384233 C14.4403409,17.7705966 13.7159091,18 12.9069602,18 C11.7840909,18 10.7698864,17.5411932 9.74360795,17.1669034 C9.00710227,16.9012784 8.29474432,16.5752841 7.63068182,16.1647727 C5.578125,14.897017 3.10298295,12.421875 1.83522727,10.3693182 C1.42471591,9.70525568 1.09872159,8.99289773 0.833096591,8.25639205 C0.458806818,7.23011364 0,6.21590909 0,5.09303977 C0,4.28409091 0.229403409,3.55965909 0.615767045,2.84730114 C0.917613636,2.30397727 1.30397727,1.62784091 1.89559659,1.37428977 C2.29403409,1.19318182 3.13920455,1 3.57386364,1 C3.65838068,1 3.74289773,1 3.82741477,1.03622159 C4.08096591,1.12073864 4.34659091,1.71235795 4.46732955,1.95383523 C4.85369318,2.64204545 5.22798295,3.34232955 5.62642045,4.01846591 C5.81960227,4.33238636 6.18181818,4.71875 6.18181818,5.09303977 C6.18181818,5.82954545 3.99644886,6.90411932 3.99644886,7.55610795 C3.99644886,7.88210227 4.29829545,8.3046875 4.46732955,8.59446023 C5.68678977,10.7919034 7.20809659,12.3132102 9.40553977,13.5326705 C9.6953125,13.7017045 10.1178977,14.0035511 10.443892,14.0035511 C11.0958807,14.0035511 12.1704545,11.8181818 12.9069602,11.8181818 C13.28125,11.8181818 13.6676136,12.1803977 13.9815341,12.3735795 C14.6576705,12.772017 15.3579545,13.1463068 16.0461648,13.5326705 C16.287642,13.6534091 16.8792614,13.9190341 16.9637784,14.1725852 C17,14.2571023 17,14.3416193 17,14.4261364 Z" id="phone---FontAwesome" fill="#42BD17"></path>
                </g>
            </g>
        </g>
    </g>
</svg>