<svg width="45" height="29" viewBox="0 0 45 29" fill="none" xmlns="http://www.w3.org/2000/svg">
<g filter="url(#filter0_d)">
<path d="M11.4647 9.954C11.4647 9.217 11.2117 8.601 10.7717 8.216C10.6287 8.095 10.4197 8.106 10.2987 8.249C10.1777 8.392 10.1887 8.601 10.3317 8.722C10.5957 8.953 10.7937 9.36 10.7937 9.954V9.965C10.7937 11.329 9.77071 11.67 8.83571 11.67H7.06471C6.87771 11.67 6.73471 11.813 6.73471 12C6.73471 12.187 6.87771 12.33 7.06471 12.33H8.83571C10.4417 12.33 11.4537 11.461 11.4537 9.965L11.4647 9.954ZM5.63471 4.971V12.011C5.63471 12.198 5.77771 12.341 5.96471 12.341C6.15171 12.341 6.29471 12.198 6.29471 12.011V4.971C6.29471 4.784 6.15171 4.641 5.96471 4.641C5.77771 4.641 5.63471 4.784 5.63471 4.971ZM8.67071 4.641H6.98771C6.80071 4.641 6.65771 4.784 6.65771 4.971C6.65771 5.158 6.80071 5.301 6.98771 5.301H8.67071C9.80371 5.301 10.1557 5.84 10.1557 6.577C10.1557 7.237 9.67171 7.71 8.67071 7.71H7.08671C6.89971 7.71 6.75671 7.853 6.75671 8.04C6.75671 8.227 6.89971 8.37 7.08671 8.37H8.67071C10.0567 8.37 10.8157 7.611 10.8157 6.577C10.8157 5.62 10.3097 4.641 8.67071 4.641ZM14.509 12.33H17.82C18.007 12.33 18.15 12.187 18.15 12C18.15 11.813 18.007 11.67 17.82 11.67H14.509C14.322 11.67 14.179 11.813 14.179 12C14.179 12.187 14.322 12.33 14.509 12.33ZM13.079 4.96V12C13.079 12.187 13.222 12.33 13.409 12.33C13.596 12.33 13.739 12.187 13.739 12V4.96C13.739 4.773 13.596 4.63 13.409 4.63C13.222 4.63 13.079 4.773 13.079 4.96ZM22.6888 9.184H20.9288C20.7418 9.184 20.5988 9.327 20.5988 9.514C20.5988 9.701 20.7418 9.844 20.9288 9.844H22.6888C22.8758 9.844 23.0188 9.701 23.0188 9.514C23.0188 9.327 22.8758 9.184 22.6888 9.184ZM20.9398 6.17L18.4978 11.868C18.4208 12.033 18.4978 12.231 18.6628 12.308C18.8278 12.385 19.0258 12.308 19.1028 12.143L21.5448 6.445C21.6218 6.28 21.5448 6.082 21.3798 6.005C21.2148 5.928 21.0168 6.005 20.9398 6.17ZM25.1418 11.868L22.1278 4.828C22.0508 4.663 21.8528 4.586 21.6878 4.663C21.5228 4.74 21.4458 4.938 21.5228 5.103L24.5368 12.143C24.6138 12.308 24.8118 12.385 24.9768 12.308C25.1418 12.231 25.2188 12.033 25.1418 11.868ZM29.4351 12.33C30.2601 12.33 31.1841 12.011 31.8771 11.318C32.0091 11.186 32.0091 10.977 31.8771 10.845C31.7451 10.713 31.5361 10.713 31.4041 10.845C30.8431 11.406 30.0951 11.67 29.4241 11.67H29.3801C28.8741 11.659 28.3681 11.505 27.9391 11.23C27.5101 10.955 27.1471 10.548 26.9051 10.086C26.6741 9.646 26.5531 9.14 26.5311 8.634C26.5311 8.601 26.5311 8.568 26.5311 8.524C26.5311 8.062 26.6191 7.6 26.7951 7.171C26.9931 6.676 27.3561 6.104 27.9391 5.719C28.3021 5.488 28.7971 5.301 29.3691 5.301C29.9411 5.301 30.4361 5.488 30.7991 5.719C30.9531 5.818 31.1621 5.774 31.2611 5.62C31.3601 5.466 31.3161 5.257 31.1621 5.158C30.6341 4.817 30.0071 4.63 29.3691 4.63C28.7311 4.63 28.1041 4.817 27.5761 5.158C26.9271 5.576 26.4541 6.203 26.1791 6.896C25.9701 7.413 25.8711 7.963 25.8711 8.513C25.8711 8.568 25.8711 8.612 25.8711 8.656C25.8931 9.25 26.0361 9.844 26.3111 10.383C26.5971 10.944 27.0371 11.428 27.5761 11.769C28.1041 12.11 28.7311 12.297 29.3581 12.308C29.3691 12.308 29.3911 12.308 29.4021 12.308L29.4351 12.33ZM35.1282 9.085L38.2742 12.231C38.4062 12.363 38.6152 12.363 38.7472 12.231C38.8792 12.099 38.8792 11.89 38.7472 11.758L35.6012 8.612C35.4692 8.48 35.2602 8.48 35.1282 8.612C34.9962 8.744 34.9962 8.953 35.1282 9.085ZM34.8862 8.381L38.0872 5.18C38.2192 5.048 38.2192 4.839 38.0872 4.707C37.9552 4.575 37.7462 4.575 37.6142 4.707L34.4132 7.908C34.2812 8.04 34.2812 8.249 34.4132 8.381C34.5452 8.513 34.7542 8.513 34.8862 8.381ZM34.1492 12V4.96C34.1492 4.773 34.0062 4.63 33.8192 4.63C33.6322 4.63 33.4892 4.773 33.4892 4.96V12C33.4892 12.187 33.6322 12.33 33.8192 12.33C34.0062 12.33 34.1492 12.187 34.1492 12ZM5.62702 20.546H8.28902C8.47602 20.546 8.61902 20.403 8.61902 20.216C8.61902 20.029 8.47602 19.886 8.28902 19.886H5.62702C5.44002 19.886 5.29702 20.029 5.29702 20.216C5.29702 20.403 5.44002 20.546 5.62702 20.546ZM4.35102 16.96V24C4.35102 24.187 4.49402 24.33 4.68102 24.33C4.86802 24.33 5.01102 24.187 5.01102 24V16.96C5.01102 16.773 4.86802 16.63 4.68102 16.63C4.49402 16.63 4.35102 16.773 4.35102 16.96ZM8.93802 16.63H5.62702C5.44002 16.63 5.29702 16.773 5.29702 16.96C5.29702 17.147 5.44002 17.29 5.62702 17.29H8.93802C9.12502 17.29 9.26802 17.147 9.26802 16.96C9.26802 16.773 9.12502 16.63 8.93802 16.63ZM12.6702 21.382L15.6842 24.242C15.8162 24.363 16.0252 24.363 16.1462 24.231C16.2672 24.099 16.2672 23.89 16.1352 23.769L13.1212 20.909C12.9892 20.788 12.7802 20.788 12.6592 20.92C12.5382 21.052 12.5382 21.261 12.6702 21.382ZM10.6462 16.96V24C10.6462 24.187 10.7892 24.33 10.9762 24.33C11.1632 24.33 11.3062 24.187 11.3062 24V16.96C11.3062 16.773 11.1632 16.63 10.9762 16.63C10.7892 16.63 10.6462 16.773 10.6462 16.96ZM13.8142 16.63H12.0762C11.8892 16.63 11.7462 16.773 11.7462 16.96C11.7462 17.147 11.8892 17.29 12.0762 17.29H13.8142C14.8702 17.29 15.2112 17.862 15.2112 18.632C15.2112 19.314 14.9362 19.941 13.8362 19.941H12.1422C11.9552 19.941 11.8122 20.084 11.8122 20.271C11.8122 20.458 11.9552 20.601 12.1422 20.601H13.8362C15.0352 20.601 15.8712 19.963 15.8712 18.643C15.8712 17.312 15.0462 16.641 13.8142 16.641V16.63ZM17.7895 16.96V24C17.7895 24.187 17.9325 24.33 18.1195 24.33C18.3065 24.33 18.4495 24.187 18.4495 24V16.96C18.4495 16.773 18.3065 16.63 18.1195 16.63C17.9325 16.63 17.7895 16.773 17.7895 16.96ZM22.0406 16.63H21.6556C21.4686 16.63 21.3256 16.773 21.3256 16.96C21.3256 17.147 21.4686 17.29 21.6556 17.29H22.0296C22.1726 17.301 22.3046 17.312 22.4476 17.334C22.7996 17.389 23.1296 17.488 23.4266 17.642C23.7236 17.796 23.9876 18.016 24.1966 18.28C24.4276 18.577 24.5926 18.929 24.6916 19.303C24.7906 19.688 24.8346 20.095 24.8346 20.502V20.524C24.8346 20.942 24.7906 21.349 24.6806 21.734C24.5706 22.13 24.3946 22.504 24.1416 22.801C23.8116 23.197 23.3936 23.428 23.0306 23.549C22.8216 23.615 22.6016 23.659 22.3816 23.67C22.3376 23.67 22.2936 23.67 22.2386 23.67C22.1946 23.67 22.1506 23.67 22.0956 23.67H21.5786C21.3916 23.67 21.2486 23.813 21.2486 24C21.2486 24.187 21.3916 24.33 21.5786 24.33H22.0736C22.1396 24.33 22.1836 24.33 22.2386 24.33C22.3046 24.33 22.3596 24.33 22.4146 24.33C22.6896 24.319 22.9646 24.264 23.2286 24.176C23.7016 24.022 24.2296 23.725 24.6476 23.219C24.9666 22.834 25.1756 22.372 25.3076 21.899C25.4286 21.437 25.4726 20.964 25.4726 20.502V20.48C25.4726 20.029 25.4286 19.567 25.3076 19.116C25.1866 18.665 24.9886 18.225 24.6916 17.851C24.4276 17.51 24.0866 17.235 23.7126 17.037C23.3386 16.839 22.9316 16.718 22.5246 16.652C22.3596 16.63 22.1836 16.619 22.0186 16.608L22.0406 16.63ZM20.3136 16.938V23.978C20.3136 24.165 20.4566 24.308 20.6436 24.308C20.8306 24.308 20.9736 24.165 20.9736 23.978V16.938C20.9736 16.751 20.8306 16.608 20.6436 16.608C20.4566 16.608 20.3136 16.751 20.3136 16.938ZM30.5467 21.184H28.7867C28.5997 21.184 28.4567 21.327 28.4567 21.514C28.4567 21.701 28.5997 21.844 28.7867 21.844H30.5467C30.7337 21.844 30.8767 21.701 30.8767 21.514C30.8767 21.327 30.7337 21.184 30.5467 21.184ZM28.7977 18.17L26.3557 23.868C26.2787 24.033 26.3557 24.231 26.5207 24.308C26.6857 24.385 26.8837 24.308 26.9607 24.143L29.4027 18.445C29.4797 18.28 29.4027 18.082 29.2377 18.005C29.0727 17.928 28.8747 18.005 28.7977 18.17ZM32.9997 23.868L29.9857 16.828C29.9087 16.663 29.7107 16.586 29.5457 16.663C29.3807 16.74 29.3037 16.938 29.3807 17.103L32.3947 24.143C32.4717 24.308 32.6697 24.385 32.8347 24.308C32.9997 24.231 33.0767 24.033 32.9997 23.868ZM37.26 24V21.36C37.26 21.173 37.117 21.03 36.93 21.03C36.743 21.03 36.6 21.173 36.6 21.36V24C36.6 24.187 36.743 24.33 36.93 24.33C37.117 24.33 37.26 24.187 37.26 24ZM37.172 20.018L34.169 16.74C34.048 16.608 33.839 16.597 33.707 16.718C33.575 16.839 33.564 17.048 33.685 17.18L36.688 20.458C36.809 20.59 37.018 20.601 37.15 20.48C37.282 20.359 37.293 20.15 37.172 20.018ZM39.702 16.74L37.799 18.808C37.678 18.94 37.689 19.149 37.821 19.27C37.953 19.391 38.162 19.38 38.283 19.248L40.186 17.18C40.307 17.048 40.296 16.839 40.164 16.718C40.032 16.597 39.823 16.608 39.702 16.74Z" fill="url(#paint0_linear)"/>
</g>
<defs>
<filter id="filter0_d" x="0.350586" y="0.608032" width="43.9193" height="27.73" filterUnits="userSpaceOnUse" color-interpolation-filters="sRGB">
<feFlood flood-opacity="0" result="BackgroundImageFix"/>
<feColorMatrix in="SourceAlpha" type="matrix" values="0 0 0 0 0 0 0 0 0 0 0 0 0 0 0 0 0 0 127 0"/>
<feOffset/>
<feGaussianBlur stdDeviation="2"/>
<feColorMatrix type="matrix" values="0 0 0 0 0.976471 0 0 0 0 0.0117647 0 0 0 0 0.0117647 0 0 0 0.3 0"/>
<feBlend mode="normal" in2="BackgroundImageFix" result="effect1_dropShadow"/>
<feBlend mode="normal" in="SourceGraphic" in2="effect1_dropShadow" result="shape"/>
</filter>
<linearGradient id="paint0_linear" x1="6.8" y1="6" x2="43.1201" y2="18.38" gradientUnits="userSpaceOnUse">
<stop stop-color="#826770"/>
<stop offset="1" stop-color="#341335"/>
</linearGradient>
</defs>
</svg>
