<?xml version="1.0" encoding="UTF-8"?>
<svg width="48px" height="28px" viewBox="0 0 48 28" version="1.1" xmlns="http://www.w3.org/2000/svg" xmlns:xlink="http://www.w3.org/1999/xlink">
    <!-- Generator: Sketch 52.2 (67145) - http://www.bohemiancoding.com/sketch -->
    <title>ft1</title>
    <desc>Created with Sketch.</desc>
    <g id="Desktop" stroke="none" stroke-width="1" fill="none" fill-rule="evenodd">
        <g id="Main-Page/1" transform="translate(-193.000000, -3095.000000)" fill="#34B500" stroke="#34B500" stroke-width="0.8">
            <path d="M237.363869,3118.48649 C236.759159,3120.51834 234.876934,3122 232.648649,3122 C230.420364,3122 228.538139,3120.51834 227.933428,3118.48649 L206.44495,3118.48649 C205.84024,3120.51834 203.958015,3122 201.72973,3122 C199.501445,3122 197.61922,3120.51834 197.01451,3118.48649 L194.702703,3118.48649 C194.314611,3118.48649 194,3118.17188 194,3117.78378 L194,3112.86737 C194,3110.63675 195.633118,3108.22373 197.708243,3107.39319 L201.260091,3105.97161 L205.940074,3098.69164 C206.910844,3097.18155 209.074421,3096 210.870564,3096 L238.972973,3096 C239.361065,3096 239.675676,3096.31461 239.675676,3096.7027 C239.675676,3097.09079 239.361065,3097.40541 238.972973,3097.40541 L238.389929,3097.40541 L240.369779,3109.94446 L240.378378,3110.05405 L240.378378,3117.78378 C240.378378,3118.17188 240.063768,3118.48649 239.675676,3118.48649 L237.363869,3118.48649 Z M216.393234,3097.40541 L215.471116,3103.86024 C215.202477,3105.74071 213.469257,3107.24324 211.568011,3107.24324 L201.865132,3107.24324 L198.230464,3108.69797 C196.688803,3109.315 195.405405,3111.21129 195.405405,3112.86737 L195.405405,3117.08108 L196.810811,3117.08108 C196.810811,3114.36444 199.013086,3112.16216 201.72973,3112.16216 C204.446373,3112.16216 206.648649,3114.36444 206.648649,3117.08108 L227.72973,3117.08108 C227.72973,3114.36444 229.932005,3112.16216 232.648649,3112.16216 C235.365292,3112.16216 237.567568,3114.36444 237.567568,3117.08108 L238.972973,3117.08108 L238.972973,3110.10919 L236.967112,3097.40541 L216.393234,3097.40541 Z M214.079836,3103.66148 L214.973561,3097.40541 L210.870564,3097.40541 C209.552695,3097.40541 207.834481,3098.34374 207.122271,3099.45162 L203.016846,3105.83784 L211.568011,3105.83784 C212.76999,3105.83784 213.910126,3104.84945 214.079836,3103.66148 Z M201.72973,3120.59459 C203.67019,3120.59459 205.243243,3119.02154 205.243243,3117.08108 C205.243243,3115.14062 203.67019,3113.56757 201.72973,3113.56757 C199.78927,3113.56757 198.216216,3115.14062 198.216216,3117.08108 C198.216216,3119.02154 199.78927,3120.59459 201.72973,3120.59459 Z M232.648649,3120.59459 C234.589109,3120.59459 236.162162,3119.02154 236.162162,3117.08108 C236.162162,3115.14062 234.589109,3113.56757 232.648649,3113.56757 C230.708189,3113.56757 229.135135,3115.14062 229.135135,3117.08108 C229.135135,3119.02154 230.708189,3120.59459 232.648649,3120.59459 Z" id="ft1" transform="translate(217.189189, 3109.000000) scale(-1, 1) translate(-217.189189, -3109.000000) "></path>
        </g>
    </g>
</svg>