<svg width="38" height="34" viewBox="0 0 38 34" fill="none" xmlns="http://www.w3.org/2000/svg">
<path d="M35.8724 14.7861H34.9684V9.12354C34.9684 6.80812 33.1604 4.93142 30.9471 4.93142H30.1132L30.121 2.82724C30.121 1.26738 28.9053 0 27.4089 0H3.29655C1.49631 0 0.0233798 1.51111 0 3.38781C0 3.40406 0 3.42031 0 3.43656V31.1728C0 32.7326 1.21575 34 2.71206 34H30.9549C33.176 34 34.9762 32.1152 34.9762 29.8079V24.1372H35.8802C37.0492 24.1372 38 23.146 38 21.9274V16.9959C37.9922 15.7773 37.0414 14.7861 35.8724 14.7861ZM3.29655 1.94982H27.4089C27.8687 1.94982 28.2506 2.33978 28.2506 2.81912L28.2428 4.93142H3.29655C2.50943 4.93142 1.87039 4.26523 1.87039 3.44468C1.87039 2.62413 2.50943 1.94982 3.29655 1.94982ZM33.098 29.7998C33.098 31.0346 32.1317 32.0421 30.9471 32.0421H2.70427C2.24446 32.0421 1.86259 31.6521 1.86259 31.1646V6.54002C2.29902 6.75938 2.7822 6.88124 3.29655 6.88124H30.9471C32.1317 6.88124 33.098 7.88865 33.098 9.12354V14.7861H26.7153C25.5463 14.7861 24.5956 15.7773 24.5956 16.9959V21.9274C24.5956 23.146 25.5463 24.1372 26.7153 24.1372H33.098V29.7998V29.7998ZM36.1218 21.9274C36.1218 22.0736 36.0127 22.1873 35.8724 22.1873H26.7231C26.5829 22.1873 26.4737 22.0736 26.4737 21.9274V16.9959C26.4737 16.8578 26.5829 16.736 26.7231 16.736H35.8724C36.0049 16.736 36.1218 16.8497 36.1218 16.9959V21.9274Z" fill="#34B500"/>
</svg>
