<?xml version="1.0" encoding="UTF-8"?>
<svg width="36px" height="36px" viewBox="0 0 36 36" version="1.1" xmlns="http://www.w3.org/2000/svg" xmlns:xlink="http://www.w3.org/1999/xlink">
    <!-- Generator: Sketch 52.2 (67145) - http://www.bohemiancoding.com/sketch -->
    <title>ft3</title>
    <desc>Created with Sketch.</desc>
    <g id="Desktop" stroke="none" stroke-width="1" fill="none" fill-rule="evenodd">
        <g id="Main-Page/1" transform="translate(-871.000000, -3092.000000)" fill="#34B500" fill-rule="nonzero" stroke="#FFFFFF" stroke-width="0.4">
            <path d="M888.996204,3095.47521 C897.006476,3095.47521 903.520992,3101.98973 903.520992,3110 C903.520992,3118.01027 897.006476,3124.52479 888.996204,3124.52479 C880.985931,3124.52479 874.471416,3118.01027 874.471416,3110 C874.471416,3101.98973 880.985931,3095.47521 888.996204,3095.47521 Z M888.996204,3093 C879.607861,3093 872,3100.61166 872,3110 C872,3119.38834 879.611657,3127 889,3127 C898.388343,3127 906,3119.38834 906,3110 C906,3100.61166 898.384547,3093 888.996204,3093 Z M896.175078,3117.99888 C895.932113,3117.99888 895.689147,3117.92675 895.472756,3117.7787 L888.453327,3112.93077 C888.11925,3112.6992 887.918044,3112.31956 887.918044,3111.91335 L887.918044,3101.03685 C887.918044,3100.35351 888.472309,3099.79924 889.15565,3099.79924 C889.838991,3099.79924 890.393256,3100.35351 890.393256,3101.03685 L890.393256,3111.26418 L896.881197,3115.74386 C897.443055,3116.13109 897.583519,3116.90174 897.196293,3117.4636 C896.953327,3117.80907 896.569897,3117.99888 896.175078,3117.99888 Z" id="ft3"></path>
        </g>
    </g>
</svg>