<?xml version="1.0" encoding="UTF-8"?>
<svg width="30px" height="36px" viewBox="0 0 30 36" version="1.1" xmlns="http://www.w3.org/2000/svg" xmlns:xlink="http://www.w3.org/1999/xlink">
    <!-- Generator: Sketch 52.2 (67145) - http://www.bohemiancoding.com/sketch -->
    <title>ft4</title>
    <desc>Created with Sketch.</desc>
    <g id="Desktop" stroke="none" stroke-width="1" fill="none" fill-rule="evenodd">
        <g id="Main-Page/1" transform="translate(-1209.000000, -3092.000000)" fill="#34B500" fill-rule="nonzero" stroke="#34B500">
            <path d="M1224.62481,3093.29575 C1224.3614,3092.90142 1223.70833,3092.90142 1223.44491,3093.29575 C1222.37724,3094.89649 1214.03534,3098.65127 1210.98818,3098.65127 C1210.59696,3098.65127 1210,3098.96924 1210,3099.36046 L1210,3112.83031 C1210,3119.76163 1222.84483,3126.77244 1223.55714,3126.9735 C1223.61948,3126.99065 1223.82367,3127 1223.88913,3127 C1223.95459,3127 1224.36764,3126.99065 1224.42998,3126.9735 C1225.02071,3126.80673 1238.0557,3119.27533 1238.0557,3113.5395 L1238.0557,3099.36046 C1238.0557,3098.96924 1237.45874,3098.65127 1237.06751,3098.65127 C1233.65251,3098.65127 1225.66131,3094.84817 1224.62481,3093.29575 Z M1236.49705,3113.5395 C1236.49705,3117.81955 1225.84056,3124.57162 1224.02941,3125.51617 C1222.26034,3124.61527 1211.55865,3118.3417 1211.55865,3112.83031 L1211.55865,3100.02289 C1216.2346,3099.62231 1221.78339,3096.7544 1224.03253,3094.73439 C1226.2271,3096.73258 1231.8211,3099.6566 1236.49705,3100.02912 L1236.49705,3113.5395 Z" id="ft4"></path>
        </g>
    </g>
</svg>