<svg width="77" height="20" viewBox="0 0 77 20" fill="none" xmlns="http://www.w3.org/2000/svg">
<path d="M4.17524 2.76474L5.69732 3.58863L5.01302 4.73384L3.47705 3.82615L3.50507 5.51583H2.19225L2.20638 3.81226L0.670174 4.73384L0 3.58863L1.52208 2.76474L0 1.92696L0.670174 0.78199L2.20638 1.70357L2.19225 0H3.50507L3.47705 1.70357L5.01302 0.78199L5.69732 1.92696L4.17524 2.76474Z" fill="#636364"/>
<path d="M14.4978 20.0578C12.8909 20.0578 11.4594 19.6608 10.2035 18.8666C8.9477 18.0724 7.96411 16.9227 7.25299 15.4174C6.54187 13.912 6.18632 12.1158 6.18632 10.0289C6.18632 7.94177 6.54187 6.14578 7.25299 4.64046C7.96411 3.13514 8.9477 1.98538 10.2035 1.19118C11.4594 0.396981 12.8909 0 14.4978 0C16.1046 0 17.5359 0.396981 18.792 1.19118C20.0478 1.98538 21.0314 3.13514 21.7426 4.64046C22.4537 6.14578 22.8092 7.94201 22.8092 10.0289C22.8092 12.1161 22.4537 13.912 21.7426 15.4174C21.0314 16.9227 20.0478 18.0724 18.792 18.8666C17.5359 19.6608 16.1046 20.0578 14.4978 20.0578ZM14.4978 16.2623C15.6799 16.2623 16.6079 15.7545 17.2819 14.7386C17.9562 13.7229 18.2933 12.1529 18.2933 10.0289C18.2933 7.9049 17.9562 6.33493 17.2819 5.31926C16.6077 4.30334 15.6796 3.7955 14.4978 3.7955C13.3341 3.7955 12.4154 4.30334 11.7412 5.31926C11.0669 6.33493 10.73 7.9049 10.73 10.0289C10.73 12.1529 11.0669 13.7229 11.7412 14.7386C12.4154 15.7545 13.3341 16.2623 14.4978 16.2623Z" fill="#636364"/>
<path d="M31.0412 0.33252V19.7254H26.553V3.93408H22.6745V0.33252H31.0412Z" fill="#636364"/>
<path d="M48.2319 0.33252V3.2414L41.0287 19.7254H36.1527L43.1065 3.98939H36.6792V7.14775H32.6897V0.33252H48.2319Z" fill="#636364"/>
<path d="M58.005 0.33252V19.7254H53.5168V3.93408H49.6382V0.33252H58.005Z" fill="#636364"/>
<path d="M65.2518 10.6955C64.2062 8.67157 64.3489 7.02619 64.4667 6.38618C64.499 6.20924 64.6118 6.05744 64.7722 5.97531L66.4099 5.12963C66.6508 5.00537 66.7739 4.73098 66.7068 4.46856L65.7079 0.767393C65.6339 0.476482 65.3505 0.289723 65.054 0.336174L61.4024 0.81935C61.1632 0.855265 60.9714 1.03628 60.9219 1.27308C60.5845 2.90649 60.0353 7.01062 62.636 12.0457C65.237 17.0805 68.9017 19.0072 70.4298 19.6776C70.6515 19.7743 70.9101 19.7226 71.0777 19.5483L73.5851 16.8501C73.7938 16.6356 73.8058 16.2975 73.6126 16.0686L71.1718 13.1128C70.9965 12.906 70.7018 12.8473 70.4609 12.9716L68.8234 13.818C68.6637 13.901 68.4746 13.9054 68.3118 13.8292C67.7216 13.5551 66.2972 12.7192 65.2516 10.6953L65.2518 10.6955Z" fill="#636364"/>
<path fill-rule="evenodd" clip-rule="evenodd" d="M69.5622 1.83393C71.6247 2.44831 73.453 3.84924 74.558 5.89161C75.663 7.93398 75.8356 10.2309 75.2215 12.2933L76.5889 12.7006C77.3074 10.2881 77.1056 7.60164 75.8131 5.21257C74.5204 2.82375 72.3823 1.18482 69.9698 0.466522L69.5625 1.83393H69.5622ZM71.4181 7.59039C70.7822 6.41501 69.7301 5.60884 68.5432 5.25543L68.2164 6.35276C69.1224 6.6226 69.9257 7.23818 70.411 8.13534C70.8966 9.0325 70.9723 10.0417 70.7024 10.9477L71.7998 11.2746C72.1534 10.0877 72.054 8.76577 71.4181 7.59063V7.59039ZM73.5095 6.45883C72.5611 4.70593 70.9921 3.5035 69.222 2.97626L68.8281 4.2989C70.26 4.72533 71.529 5.69791 72.2961 7.11559C73.0632 8.53328 73.183 10.1277 72.7565 11.5595L74.0792 11.9533C74.6064 10.1832 74.4582 8.21172 73.5098 6.45907L73.5095 6.45883Z" fill="#636364"/>
</svg>
