<?xml version="1.0" encoding="UTF-8"?>
<svg width="13px" height="14px" viewBox="0 0 13 14" version="1.1" xmlns="http://www.w3.org/2000/svg" xmlns:xlink="http://www.w3.org/1999/xlink">
    <!-- Generator: Sketch 52.2 (67145) - http://www.bohemiancoding.com/sketch -->
    <title>i</title>
    <desc>Created with Sketch.</desc>
    <g id="Desktop" stroke="none" stroke-width="1" fill="none" fill-rule="evenodd" opacity="0.6">
        <g id="Main-Page/1" transform="translate(-515.000000, -3366.000000)" fill="#FFFFFF">
            <g id="Footer" transform="translate(0.000000, 3218.000000)">
                <path d="M523.571439,154.642851 C523.571439,153.462604 522.608826,152.499991 521.428579,152.499991 C520.248332,152.499991 519.285719,153.462604 519.285719,154.642851 C519.285719,155.823098 520.248332,156.78571 521.428579,156.78571 C522.608826,156.78571 523.571439,155.823098 523.571439,154.642851 Z M524.726574,154.642851 C524.726574,156.46763 523.253358,157.940846 521.428579,157.940846 C519.6038,157.940846 518.130584,156.46763 518.130584,154.642851 C518.130584,152.818072 519.6038,151.344856 521.428579,151.344856 C523.253358,151.344856 524.726574,152.818072 524.726574,154.642851 Z M525.630593,151.210927 C525.630593,151.637825 525.287401,151.981017 524.860503,151.981017 C524.433605,151.981017 524.090413,151.637825 524.090413,151.210927 C524.090413,150.784029 524.433605,150.440837 524.860503,150.440837 C525.287401,150.440837 525.630593,150.784029 525.630593,151.210927 Z M521.428579,149.369407 C520.491078,149.369407 518.482147,149.294072 517.636722,149.628894 C517.343753,149.746082 517.126119,149.888381 516.900114,150.114386 C516.674109,150.34039 516.53181,150.558024 516.414622,150.850994 C516.0798,151.696419 516.155135,153.70535 516.155135,154.642851 C516.155135,155.580352 516.0798,157.589283 516.414622,158.434708 C516.53181,158.727677 516.674109,158.945311 516.900114,159.171316 C517.126119,159.397321 517.343753,159.53962 517.636722,159.656808 C518.482147,159.991629 520.491078,159.916295 521.428579,159.916295 C522.36608,159.916295 524.375011,159.991629 525.220436,159.656808 C525.513405,159.53962 525.73104,159.397321 525.957044,159.171316 C526.183049,158.945311 526.325348,158.727677 526.442536,158.434708 C526.777358,157.589283 526.702023,155.580352 526.702023,154.642851 C526.702023,153.70535 526.777358,151.696419 526.442536,150.850994 C526.325348,150.558024 526.183049,150.34039 525.957044,150.114386 C525.73104,149.888381 525.513405,149.746082 525.220436,149.628894 C524.375011,149.294072 522.36608,149.369407 521.428579,149.369407 Z M527.857158,154.642851 C527.857158,155.530129 527.865529,156.409036 527.815305,157.296314 C527.765082,158.325891 527.530707,159.23828 526.777358,159.991629 C526.024009,160.744979 525.111619,160.979354 524.082042,161.029577 C523.194764,161.0798 522.315857,161.07143 521.428579,161.07143 C520.541301,161.07143 519.662394,161.0798 518.775116,161.029577 C517.745539,160.979354 516.83315,160.744979 516.0798,159.991629 C515.326451,159.23828 515.092076,158.325891 515.041853,157.296314 C514.991629,156.409036 515,155.530129 515,154.642851 C515,153.755573 514.991629,152.876666 515.041853,151.989388 C515.092076,150.959811 515.326451,150.047421 516.0798,149.294072 C516.83315,148.540723 517.745539,148.306348 518.775116,148.256124 C519.662394,148.205901 520.541301,148.214272 521.428579,148.214272 C522.315857,148.214272 523.194764,148.205901 524.082042,148.256124 C525.111619,148.306348 526.024009,148.540723 526.777358,149.294072 C527.530707,150.047421 527.765082,150.959811 527.815305,151.989388 C527.865529,152.876666 527.857158,153.755573 527.857158,154.642851 Z" id="i"></path>
            </g>
        </g>
    </g>
</svg>