<?xml version="1.0" encoding="UTF-8"?>
<svg width="29px" height="26px" viewBox="0 0 29 26" version="1.1" xmlns="http://www.w3.org/2000/svg" xmlns:xlink="http://www.w3.org/1999/xlink">
    <!-- Generator: Sketch 52.2 (67145) - http://www.bohemiancoding.com/sketch -->
    <title>likes</title>
    <desc>Created with Sketch.</desc>
    <g id="Desktop" stroke="none" stroke-width="1" fill="none" fill-rule="evenodd">
        <g id="Main-Page/1" transform="translate(-1338.000000, -80.000000)" fill="#E53B50" stroke="#FFFFFF" stroke-width="0.6">
            <g id="likes" transform="translate(1339.000000, 81.000000)">
                <path d="M26.7857384,4.92857143 C27.2142959,5.96429089 27.4285714,7.05356571 27.4285714,8.19642857 C27.4285714,9.44643482 27.1696552,10.6249945 26.6518149,11.7321429 C26.1339746,12.8392912 25.4107947,13.7767819 24.4822535,14.5446429 C23.8037042,15.169646 22.0537874,16.7678443 19.2324507,19.3392857 C16.5896796,21.7500121 14.973685,23.2232116 14.3844185,23.7589286 C14.1879963,23.9196437 13.9647927,24 13.7148008,24 C13.464809,24 13.2416053,23.9196437 13.0451831,23.7589286 C12.1702116,22.9732104 9.87567787,20.8750171 6.16151309,17.4642857 C4.39371351,15.8571348 3.38483292,14.9464296 3.13484106,14.7321429 C3.06341482,14.6607139 2.9830615,14.5892861 2.89377869,14.5178571 C1.98309406,13.7499962 1.27777046,12.8169698 0.777786739,11.71875 C0.277803019,10.6205302 0.0188867616,9.4553633 0.00103020014,8.22321429 C-0.0168263613,7.09820866 0.197449162,6.00893384 0.643863198,4.95535714 C1.05456411,3.95535214 1.6438218,3.07143241 2.41165394,2.30357143 C3.9116051,0.767849464 5.70616261,0 7.7953803,0 C8.93820023,0 10.0229701,0.2499975 11.0497223,0.75 C12.0764746,1.2500025 12.9648252,1.95535259 13.7148008,2.86607143 C14.4647764,1.95535259 15.353127,1.2500025 16.3798793,0.75 C17.4066316,0.2499975 18.4914014,0 19.6342213,0 C21.723439,0 23.5179965,0.758920982 25.0179477,2.27678571 C25.7857798,3.0446467 26.3750375,3.92856643 26.7857384,4.92857143 Z M15.2147445,4.28571429 C14.8397567,4.78571679 14.3397805,5.03571429 13.7148008,5.03571429 C13.0898212,5.03571429 12.5898449,4.78571679 12.2148572,4.28571429 C11.6791603,3.58928223 11.0229415,3.04464482 10.2461811,2.65178571 C9.46942068,2.25892661 8.65249524,2.0625 7.7953803,2.0625 C6.27757257,2.0625 4.96513499,2.62499438 3.85802819,3.75 C3.28661822,4.32143143 2.84913903,4.98213911 2.54557748,5.73214286 C2.20630281,6.51786107 2.04559617,7.34820991 2.06345273,8.22321429 C2.06345273,9.13393312 2.25094382,10.0044601 2.62593161,10.8348214 C3.0009194,11.6651827 3.5366082,12.3660686 4.2330141,12.9375 C4.26872722,12.9910717 4.3401524,13.0535711 4.44729177,13.125 C4.46514833,13.1428572 4.48300462,13.1696427 4.50086118,13.2053571 C4.82227929,13.4910729 5.66152509,14.2499938 7.01862376,15.4821429 L8.30428975,16.6607143 C10.8756346,19.0000117 12.6791203,20.6428524 13.7148008,21.5892857 C14.5362026,20.839282 15.9111372,19.5892945 17.8396459,17.8392857 C20.2502817,15.6071317 22.0091266,14.0000049 23.1162334,13.0178571 L23.1698028,12.9642857 C23.8483522,12.4107115 24.384041,11.7232184 24.7768853,10.9017857 C25.1697297,10.0446386 25.3661489,9.14286187 25.3661489,8.19642857 C25.3661489,7.3214242 25.2054423,6.49107536 24.8840241,5.70535714 C24.5804626,4.95535339 24.1429834,4.29464571 23.5715734,3.72321429 C22.4644666,2.61606589 21.1520291,2.0625 19.6342213,2.0625 C18.7771064,2.0625 17.960181,2.25446237 17.1834205,2.63839286 C16.4066601,3.02232335 15.7504413,3.571425 15.2147445,4.28571429 Z" id="heart-o---anticon"></path>
            </g>
        </g>
    </g>
</svg>