<svg width="29" height="26" xmlns="http://www.w3.org/2000/svg">
 <!-- Generator: Sketch 52.2 (67145) - http://www.bohemiancoding.com/sketch -->

 <title>likes</title>
 <desc>Created with Sketch.</desc>
 <g>
  <title>background</title>
  <rect fill="none" id="canvas_background" height="402" width="582" y="-1" x="-1"/>
 </g>
 <g>
  <title>Layer 1</title>
  <g fill-rule="evenodd" fill="none" id="Desktop">
   <g stroke-width="0.6" stroke="#FFFFFF" fill="#E53B50" id="Main-Page/1">
    <g id="likes">
     <path fill="#3c3c3c" id="heart-o---anticon" d="m27.78574,5.92857c0.42856,1.03572 0.64283,2.125 0.64283,3.26786c0,1.25 -0.25891,2.42856 -0.77676,3.53571c-0.51784,1.10715 -1.24102,2.04464 -2.16956,2.8125c-0.67855,0.62501 -2.42846,2.2232 -5.2498,4.79465c-2.64277,2.41072 -4.25877,3.88392 -4.84803,4.41964c-0.19642,0.16071 -0.41963,0.24107 -0.66962,0.24107c-0.24999,0 -0.47319,-0.08036 -0.66962,-0.24107c-0.87497,-0.78572 -3.1695,-2.88391 -6.88367,-6.29464c-1.7678,-1.60716 -2.77668,-2.51786 -3.02667,-2.73215c-0.07143,-0.07143 -0.15178,-0.14285 -0.24106,-0.21428c-0.91069,-0.76786 -1.61601,-1.70089 -2.11599,-2.79911c-0.49999,-1.09822 -0.7589,-2.26339 -0.77676,-3.49554c-0.01786,-1.125 0.19642,-2.21428 0.64283,-3.26785c0.4107,-1.00001 0.99996,-1.88393 1.76779,-2.65179c1.49996,-1.53572 3.29451,-2.30357 5.38373,-2.30357c1.14282,0 2.22759,0.25 3.25434,0.75c1.02675,0.5 1.91511,1.20535 2.66508,2.11607c0.74998,-0.91072 1.63833,-1.61607 2.66508,-2.11607c1.02675,-0.5 2.11152,-0.75 3.25434,-0.75c2.08922,0 3.88378,0.75892 5.38373,2.27679c0.76783,0.76786 1.35709,1.65178 1.76779,2.65178zm-11.571,-0.64286c-0.37498,0.50001 -0.87496,0.75 -1.49994,0.75c-0.62498,0 -1.12496,-0.24999 -1.49994,-0.75c-0.5357,-0.69643 -1.19192,-1.24107 -1.96868,-1.63392c-0.77676,-0.39286 -1.59368,-0.58929 -2.4508,-0.58929c-1.51781,0 -2.83025,0.56249 -3.93735,1.6875c-0.57141,0.57143 -1.00889,1.23214 -1.31245,1.98214c-0.33928,0.78572 -0.49998,1.61607 -0.48213,2.49107c0,0.91072 0.18749,1.78125 0.56248,2.61161c0.37499,0.83036 0.91068,1.53125 1.60708,2.10268c0.03572,0.05357 0.10714,0.11607 0.21428,0.1875c0.01786,0.01786 0.03571,0.04464 0.05357,0.08036c0.32142,0.28571 1.16067,1.04463 2.51776,2.27678l1.28567,1.17857c2.57134,2.3393 4.37483,3.98214 5.41051,4.92858c0.8214,-0.75001 2.19634,-2 4.12485,-3.75c2.41063,-2.23216 4.16948,-3.83929 5.27658,-4.82143l0.05357,-0.05357c0.67855,-0.55358 1.21424,-1.24107 1.60709,-2.0625c0.39284,-0.85715 0.58926,-1.75893 0.58926,-2.70536c0,-0.87501 -0.16071,-1.70535 -0.48213,-2.49107c-0.30356,-0.75001 -0.74104,-1.41071 -1.31245,-1.98215c-1.1071,-1.10714 -2.41954,-1.66071 -3.93735,-1.66071c-0.85711,0 -1.67404,0.19196 -2.4508,0.57589c-0.77676,0.38393 -1.43298,0.93304 -1.96868,1.64732z"/>
    </g>
   </g>
  </g>
 </g>
</svg>