<svg width="40" height="40" viewBox="0 0 40 40" fill="none" xmlns="http://www.w3.org/2000/svg">
<path d="M16.875 39.6875H7.5C5.25 39.6875 3.4375 37.875 3.4375 35.625V16.875C3.4375 14.625 5.25 12.8125 7.5 12.8125H16.875C19.125 12.8125 20.9375 14.625 20.9375 16.875V35.625C20.9375 37.875 19.125 39.6875 16.875 39.6875ZM7.5 14.6875C6.28125 14.6875 5.3125 15.6562 5.3125 16.875V35.625C5.3125 36.8438 6.28125 37.8125 7.5 37.8125H16.875C18.0938 37.8125 19.0625 36.8438 19.0625 35.625V16.875C19.0625 15.6562 18.0938 14.6875 16.875 14.6875H7.5Z" fill="#3EC800"/>
<path d="M35.625 39.6875H29.375C28.8437 39.6875 28.4375 39.2813 28.4375 38.75C28.4375 38.2187 28.8437 37.8125 29.375 37.8125H35.625C36.8438 37.8125 37.8125 36.8438 37.8125 35.625V4.375C37.8125 3.15625 36.8438 2.1875 35.625 2.1875H13.75C12.5312 2.1875 11.5625 3.15625 11.5625 4.375V9.0625C11.5625 9.59375 11.1563 10 10.625 10C10.0937 10 9.6875 9.59375 9.6875 9.0625V4.375C9.6875 2.125 11.5 0.3125 13.75 0.3125H35.625C37.875 0.3125 39.6875 2.125 39.6875 4.375V35.625C39.6875 37.875 37.875 39.6875 35.625 39.6875Z" fill="#3EC800"/>
<path d="M24.6875 37.8125C24.625 37.8125 24.5625 37.8125 24.5 37.7812C24.4375 37.7812 24.375 37.75 24.3125 37.7187C24.25 37.6875 24.2188 37.6562 24.1563 37.625C24.0938 37.5937 24.0625 37.5625 24.0313 37.5C23.8438 37.3125 23.75 37.0937 23.75 36.8437C23.75 36.5937 23.8438 36.3437 24.0313 36.1875C24.375 35.8438 25 35.8438 25.3437 36.1875C25.5312 36.375 25.625 36.5937 25.625 36.8437C25.625 37.0937 25.5312 37.3437 25.3437 37.5C25.3125 37.5312 25.25 37.5937 25.2187 37.625C25.1562 37.6562 25.125 37.6875 25.0625 37.7187C25 37.75 24.9375 37.75 24.875 37.7812C24.8125 37.8125 24.75 37.8125 24.6875 37.8125Z" fill="#3EC800"/>
</svg>
