<svg width="40" height="40" viewBox="0 0 40 40" fill="none" xmlns="http://www.w3.org/2000/svg">
<path d="M34.3125 29.5312H5.6875C3.59375 29.5312 1.875 27.8125 1.875 25.7187V9.96875C1.875 7.875 3.59375 6.15625 5.6875 6.15625H34.3438C36.4372 6.15625 38.1559 7.875 38.1559 9.96875V25.7187C38.125 27.8125 36.4063 29.5312 34.3125 29.5312ZM5.6875 8.03125C4.625 8.03125 3.75 8.90625 3.75 9.96875V25.7187C3.75 26.7812 4.625 27.6562 5.6875 27.6562H34.3438C35.4059 27.6562 36.2809 26.7812 36.2809 25.7187V9.96875C36.2809 8.90625 35.4059 8.03125 34.3438 8.03125H5.6875ZM31.4687 33.8437H8.53125C8 33.8437 7.59375 33.4375 7.59375 32.9062C7.59375 32.375 8 31.9687 8.53125 31.9687H31.4375C31.9687 31.9687 32.375 32.375 32.375 32.9062C32.375 33.4375 31.9687 33.8437 31.4687 33.8437Z" fill="#fff"/>
</svg>
