<svg width="40" height="40" viewBox="0 0 40 40" fill="none" xmlns="http://www.w3.org/2000/svg">
<path d="M34.375 29.75C33.8437 29.75 34.375 29.75 33.5938 29.75V8.34375C33.5938 7.90625 33.25 7.5625 32.8125 7.5625H7.1875C6.75 7.5625 6.40625 7.90625 6.40625 8.34375V26.3125C6.40625 26.8438 6 27.25 5.46875 27.25C4.9375 27.25 4.53125 26.8438 4.53125 26.3125V8.34375C4.53125 6.875 5.71875 5.6875 7.1875 5.6875H32.8125C34.2812 5.6875 35.4688 6.875 35.4688 8.34375V29.75C34.375 29.75 34.9063 29.75 34.375 29.75Z" fill="#3EC800"/>
<path d="M35.9375 34.125H4.0625C2.59375 34.125 1.40625 32.9375 1.40625 31.4688V29.4375C1.40625 28.9062 1.8125 28.5 2.34375 28.5H15.3125C15.8438 28.5 16.25 28.9062 16.25 29.4375C16.25 29.9688 15.8438 30.375 15.3125 30.375H3.28125V31.4688C3.28125 31.9062 3.625 32.25 4.0625 32.25H35.9375C36.375 32.25 36.7188 31.9062 36.7188 31.4688V30.375H24.6875C24.1562 30.375 23.75 29.9688 23.75 29.4375C23.75 28.9062 24.1562 28.5 24.6875 28.5H37.6562C38.1875 28.5 38.5938 28.9062 38.5938 29.4375V31.4688C38.5938 32.9375 37.4062 34.125 35.9375 34.125Z" fill="#3EC800"/>
</svg>
