<svg width="40" height="40" viewBox="0 0 40 40" fill="none" xmlns="http://www.w3.org/2000/svg">
<path d="M34.3125 23.0312C33.7813 23.0312 33.375 22.625 33.375 22.0938V19.0312C33.375 11.6562 27.375 5.625 20 5.625C12.625 5.625 6.625 11.6562 6.625 19.0312V22.0938C6.625 22.625 6.21875 23.0312 5.6875 23.0312C5.15625 23.0312 4.75 22.625 4.75 22.0938V19.0312C4.75 10.5938 11.5937 3.75 20 3.75C28.4062 3.75 35.25 10.5938 35.25 19V22.0625C35.25 22.625 34.8437 23.0312 34.3125 23.0312Z" fill="#3EC800"/>
<path d="M11.4062 36.25H9.96875C5.5 36.25 1.875 32.5938 1.875 28.125C1.875 23.6563 5.5 20.0312 9.96875 20.0312H11.4062C12.7187 20.0312 13.7812 21.0937 13.7812 22.4062V33.875C13.7812 35.1875 12.7187 36.25 11.4062 36.25ZM9.96875 21.9062C6.53125 21.9062 3.75 24.7188 3.75 28.125C3.75 31.5313 6.53125 34.375 9.96875 34.375H11.4062C11.6875 34.375 11.9062 34.1563 11.9062 33.875V22.4062C11.9062 22.125 11.6875 21.9062 11.4062 21.9062H9.96875V21.9062ZM30.0312 36.25H28.5938C27.2813 36.25 26.2188 35.1875 26.2188 33.875V22.4062C26.2188 21.0937 27.2813 20.0312 28.5938 20.0312H30.0312C34.5 20.0312 38.125 23.6563 38.125 28.125C38.125 32.5938 34.5 36.25 30.0312 36.25ZM28.5938 21.9062C28.3125 21.9062 28.0938 22.125 28.0938 22.4062V33.875C28.0938 34.1563 28.3125 34.375 28.5938 34.375H30.0312C33.4687 34.375 36.25 31.5938 36.25 28.1562C36.25 24.7188 33.4687 21.9375 30.0312 21.9375L28.5938 21.9062Z" fill="#3EC800"/>
</svg>
