<svg width="40" height="40" viewBox="0 0 40 40" fill="none" xmlns="http://www.w3.org/2000/svg">
<g clip-path="url(#clip0)">
<path d="M27.0793 40H13.8419C11.4592 40 9.53979 38 9.53979 35.5172V4.48276C9.53979 2 11.4592 0 13.8419 0H27.0793C29.462 0 31.3814 2 31.3814 4.48276V14.8276C31.3814 15.4138 30.9512 15.8621 30.3886 15.8621C29.826 15.8621 29.3958 15.4138 29.3958 14.8276V4.48276C29.3958 3.13793 28.3699 2.06897 27.0793 2.06897H13.8419C12.5513 2.06897 11.5254 3.13793 11.5254 4.48276V35.5172C11.5254 36.8621 12.5513 37.931 13.8419 37.931H27.0793C28.3699 37.931 29.3958 36.8621 29.3958 35.5172V18.2759C29.3958 17.6897 29.826 17.2414 30.3886 17.2414C30.9512 17.2414 31.3814 17.6897 31.3814 18.2759V35.5172C31.3814 38 29.462 40 27.0793 40Z" fill="#3EC800"/>
<path d="M30.0576 15.8622H13.8419C13.2793 15.8622 12.8491 15.4139 12.8491 14.8277C12.8491 14.2415 13.2793 13.7932 13.8419 13.7932H30.0576C30.6202 13.7932 31.0504 14.2415 31.0504 14.8277C31.0504 15.4139 30.6202 15.8622 30.0576 15.8622ZM16.3239 40.0001H6.39588C5.83329 40.0001 5.40308 39.5518 5.40308 38.9656C5.40308 38.3794 5.83329 37.9311 6.39588 37.9311H16.3239C16.8865 37.9311 17.3167 38.3794 17.3167 38.9656C17.3167 39.5518 16.8865 40.0001 16.3239 40.0001ZM3.08655 40.0001C2.8218 40.0001 2.55706 39.8967 2.39159 39.6898C2.19303 39.4829 2.09375 39.2415 2.09375 38.9656C2.09375 38.6898 2.19303 38.4139 2.39159 38.2415C2.75562 37.8622 3.41748 37.8622 3.78151 38.2415C3.98007 38.4484 4.07935 38.6898 4.07935 38.9656C4.07935 39.2415 3.98007 39.5174 3.78151 39.6898C3.61604 39.8967 3.3513 40.0001 3.08655 40.0001Z" fill="#3EC800"/>
<path d="M33.6979 40H20.4606C19.898 40 19.4678 39.5517 19.4678 38.9655C19.4678 38.3793 19.898 37.931 20.4606 37.931H33.6979C34.9885 37.931 36.0144 36.8621 36.0144 35.5172V4.48276C36.0144 3.13793 34.9885 2.06897 33.6979 2.06897H20.4606C19.898 2.06897 19.4678 1.62069 19.4678 1.03448C19.4678 0.448276 19.898 0 20.4606 0H33.6979C36.0806 0 38 2 38 4.48276V35.5172C38 38 36.0806 40 33.6979 40Z" fill="#3EC800"/>
</g>
<defs>
<clipPath id="clip0">
<rect width="40" height="40" fill="white"/>
</clipPath>
</defs>
</svg>
