<?xml version="1.0" encoding="utf-8"?>
<!-- Generator: Adobe Illustrator 22.1.0, SVG Export Plug-In . SVG Version: 6.00 Build 0)  -->
<svg version="1.1" id="Layer_1" xmlns="http://www.w3.org/2000/svg" xmlns:xlink="http://www.w3.org/1999/xlink" x="0px" y="0px"
	 viewBox="0 0 356 336" style="enable-background:new 0 0 356 336;" xml:space="preserve">
<style type="text/css">
	.st0{fill:#FFFFFF;}
	.st1{fill:#D43157;}
</style>
<title>logo-new</title>
<desc>Created with Sketch.</desc>
<g transform="translate(3.000000, 0.000000)">
	<path id="Fill-1" class="st0" d="M351.4,191.8C363.6,106.6,306,16,209.6,2.3C108.2-12,31.7,65.6,20.7,142.8
		c-4.9,34.5,5.8,61.5,2.1,87.5C19,257,7.2,269.5,0.2,280.3c-4.9,7.5-4.4,19.5,2.9,28.5c7.8,9.7,17.4,11.4,27.7,7.8
		c10.4-3.7,24.4-9.8,48.6-7.4c32.8,3.3,44.4,19.7,82.8,25.1C261.3,348.3,339.4,275.3,351.4,191.8"/>
	<path id="Fill-8" class="st1" d="M322.5,121.5c5.1,1.6,8.1,7.1,6.6,12.3c-1.2,4.2-5.1,7.1-9.3,7.1c-0.9,0-1.9-0.1-2.8-0.4
		c-2.6-0.8-5.3-1.2-8-1.2c-15.5,0-28.2,12.9-28.2,28.8v38.2c0,5.5-4.4,9.9-9.7,9.9c-5.4,0-9.7-4.4-9.7-9.9v-38.2
		c0-26.8,21.3-48.6,47.6-48.6C313.6,119.5,318.2,120.2,322.5,121.5z M96.1,119.5c26.4,0,47.8,21.8,47.8,48.6v38.2
		c0,5.5-4.4,9.9-9.8,9.9c-5.4,0-9.8-4.4-9.8-9.9v-38.2c0-15.8-12.7-28.8-28.3-28.8s-28.3,12.9-28.3,28.8v38.2c0,5.5-4.4,9.9-9.8,9.9
		s-9.7-4.4-9.7-9.9v-38.2C48.3,141.3,69.7,119.5,96.1,119.5z M248.2,192.8c0-7.8,3.2-15.4,3.2-25.7c0-23.1-19.2-49-49.4-49
		c-28.8,0-49.4,24.1-49.4,49.6c0,24.9,19.8,49.6,49.4,49.6c11.5,0,13.3-3,23.1-3c14.2,0,19,6.8,25,1.1
		C256.1,209.6,248.2,207.3,248.2,192.8 M227.9,194.2c-2.7,2.5-16.3,3.8-25.2,3.8c-9,0-30.4-7.1-30.4-30s20-30.3,30.3-30.3
		c19.1,0,30.2,16.1,30.2,30C232.7,181.6,230.6,191.8,227.9,194.2"/>
</g>
</svg>
