<svg width="60" height="60" viewBox="0 0 60 60" fill="none" xmlns="http://www.w3.org/2000/svg">
<circle cx="30" cy="30" r="30" fill="black"/>
<path d="M40.8954 13.224L17.2794 44.136C16.7994 44.76 16.9434 45.672 17.5674 46.152C18.1914 46.632 19.1034 46.488 19.5834 45.864L43.1994 14.952C43.6794 14.328 43.5354 13.416 42.9114 12.936C42.2874 12.456 41.3754 12.6 40.8954 13.224ZM31.3914 37.368V37.896C31.4394 39.72 31.8234 41.688 32.9754 43.416C33.5514 44.28 34.3194 45.048 35.2794 45.624C36.1914 46.152 37.2474 46.44 38.3514 46.44C38.3994 46.44 38.4954 46.44 38.5434 46.44C39.5034 46.392 40.6554 46.104 41.7114 45.432C42.6234 44.856 43.3434 44.04 43.8714 43.176C44.8794 41.448 45.1674 39.528 45.1674 37.752C45.1674 36.024 44.9274 33.912 43.7274 31.992C43.1514 31.08 42.3834 30.264 41.3754 29.688C40.2714 29.016 39.1194 28.776 38.1594 28.776C38.1114 28.776 38.0154 28.776 37.9674 28.776C37.0074 28.824 35.8554 29.112 34.7514 29.832C33.7914 30.456 33.0714 31.32 32.5434 32.232C31.5834 33.864 31.2954 35.688 31.2954 37.416L31.3914 37.368ZM34.1754 37.848V37.416C34.1754 36.024 34.4154 34.728 35.0394 33.672C35.3754 33.096 35.8074 32.616 36.3354 32.28C36.9114 31.896 37.5354 31.752 38.0634 31.752H38.1594C38.6874 31.752 39.3114 31.896 39.8874 32.232C40.4154 32.568 40.8954 33.048 41.2314 33.624C41.9514 34.824 42.2394 36.264 42.2394 37.896C42.2394 39.336 41.9994 40.728 41.3274 41.832C40.9914 42.36 40.5594 42.84 40.0794 43.176C39.5034 43.56 38.8794 43.704 38.3514 43.704H38.2554C37.6794 43.704 37.1034 43.56 36.6234 43.272C36.0954 42.984 35.6154 42.552 35.2794 42.024C34.5594 40.92 34.2234 39.528 34.1754 38.04V37.848ZM15.1194 20.856V21.384C15.1674 23.208 15.5514 25.176 16.7034 26.904C17.2794 27.768 18.0474 28.536 19.0074 29.112C19.9194 29.64 20.9754 29.928 22.0794 29.928C22.1274 29.928 22.2234 29.928 22.2714 29.928C23.2314 29.88 24.3834 29.592 25.4394 28.92C26.3514 28.344 27.0714 27.528 27.5994 26.664C28.6074 24.936 28.8954 23.016 28.8954 21.24C28.8954 19.512 28.6554 17.4 27.4554 15.48C26.8794 14.568 26.1114 13.752 25.1034 13.176C23.9994 12.504 22.8474 12.264 21.8874 12.264C21.8394 12.264 21.7434 12.264 21.6954 12.264C20.7354 12.312 19.5834 12.6 18.4794 13.32C17.5194 13.944 16.7994 14.808 16.2714 15.72C15.3114 17.352 15.0234 19.176 15.0234 20.904L15.1194 20.856ZM17.9034 21.336V20.904C17.9034 19.512 18.1434 18.216 18.7674 17.16C19.1034 16.584 19.5354 16.104 20.0634 15.768C20.6394 15.384 21.2634 15.24 21.7914 15.24H21.8874C22.4154 15.24 23.0394 15.384 23.6154 15.72C24.1434 16.056 24.6234 16.536 24.9594 17.112C25.6794 18.312 25.9674 19.752 25.9674 21.384C25.9674 22.824 25.7274 24.216 25.0554 25.32C24.7194 25.848 24.2874 26.328 23.8074 26.664C23.2314 27.048 22.6074 27.192 22.0794 27.192H21.9834C21.4074 27.192 20.8314 27.048 20.3514 26.76C19.8234 26.472 19.3434 26.04 19.0074 25.512C18.2874 24.408 17.9514 23.016 17.9034 21.528V21.336Z" fill="white" fill-opacity="0.15"/>
</svg>
