<?xml version="1.0" encoding="UTF-8"?>
<svg width="14px" height="15px" viewBox="0 0 14 15" version="1.1" xmlns="http://www.w3.org/2000/svg" xmlns:xlink="http://www.w3.org/1999/xlink">
    <!-- Generator: Sketch 52.2 (67145) - http://www.bohemiancoding.com/sketch -->
    <title>close-circle - anticon</title>
    <desc>Created with Sketch.</desc>
    <g id="Desktop" stroke="none" stroke-width="1" fill="none" fill-rule="evenodd">
        <g id="Products" transform="translate(-1366.000000, -737.000000)" fill="#E53B50">
            <g id="product-tags" transform="translate(396.000000, 726.000000)">
                <g id="clear-tags" transform="translate(870.000000, 10.000000)">
                    <g id="Group-2-Copy-5" transform="translate(100.000000, 2.000000)">
                        <path d="M10.5136719,0.693359375 C11.5891981,1.31315414 12.4391245,2.16080191 13.0634766,3.23632812 C13.6878286,4.31185434 14,5.48306658 14,6.75 C14,8.01693342 13.6878286,9.18814566 13.0634766,10.2636719 C12.4391245,11.3391981 11.5891981,12.1891245 10.5136719,12.8134766 C9.43814566,13.4378286 8.26693342,13.75 7,13.75 C5.73306658,13.75 4.56185434,13.4378286 3.48632812,12.8134766 C2.41080191,12.1891245 1.56087552,11.3391981 0.936523438,10.2636719 C0.312171357,9.18814566 0,8.01693342 0,6.75 C0,5.48306658 0.312171357,4.31185434 0.936523438,3.23632812 C1.56087552,2.16080191 2.41080191,1.31087552 3.48632812,0.686523438 C4.56185434,0.0621713574 5.73306658,-0.25 7,-0.25 C8.26693342,-0.25 9.43814566,0.0644499805 10.5136719,0.693359375 Z M9.80273438,8.86914062 L7.69726562,6.75 L9.80273438,4.63085938 C9.90299529,4.53059846 9.953125,4.41438868 9.953125,4.28222656 C9.953125,4.15006444 9.90527392,4.03613329 9.80957031,3.94042969 C9.71386671,3.84472608 9.59765693,3.796875 9.4609375,3.796875 C9.32421807,3.796875 9.20572967,3.84244746 9.10546875,3.93359375 L7,6.05273438 L4.89453125,3.93359375 C4.79427033,3.84244746 4.67578193,3.796875 4.5390625,3.796875 C4.40234307,3.796875 4.28613329,3.84472608 4.19042969,3.94042969 C4.09472608,4.03613329 4.046875,4.15234307 4.046875,4.2890625 C4.046875,4.42578193 4.09700471,4.53971309 4.19726562,4.63085938 L6.30273438,6.75 L4.19726562,8.86914062 C4.09700471,8.96028691 4.046875,9.07421807 4.046875,9.2109375 C4.046875,9.34765693 4.09472608,9.46386671 4.19042969,9.55957031 C4.28613329,9.65527392 4.40234307,9.703125 4.5390625,9.703125 C4.67578193,9.703125 4.79427033,9.65755254 4.89453125,9.56640625 L7,7.44726562 L9.10546875,9.56640625 C9.20572967,9.65755254 9.32421807,9.703125 9.4609375,9.703125 C9.59765693,9.703125 9.71386671,9.65527392 9.80957031,9.55957031 C9.90527392,9.46386671 9.953125,9.34765693 9.953125,9.2109375 C9.953125,9.07421807 9.90299529,8.96028691 9.80273438,8.86914062 Z" id="close-circle---anticon"></path>
                    </g>
                </g>
            </g>
        </g>
    </g>
</svg>