<?xml version="1.0" encoding="UTF-8"?>
<svg width="18px" height="18px" viewBox="0 0 18 18" version="1.1" xmlns="http://www.w3.org/2000/svg" xmlns:xlink="http://www.w3.org/1999/xlink">
    <!-- Generator: Sketch 52.2 (67145) - http://www.bohemiancoding.com/sketch -->
    <title>search</title>
    <desc>Created with Sketch.</desc>
    <g id="Desktop" stroke="none" stroke-width="1" fill="none" fill-rule="evenodd">
        <g id="Main-Page/1" transform="translate(-1222.000000, -82.000000)" fill="#3C3C3C">
            <path d="M1239.79911,98.7544643 C1239.93304,98.9017865 1240,99.0758919 1240,99.2767857 C1240,99.4776796 1239.93304,99.651785 1239.79911,99.7991071 C1239.65178,99.9330364 1239.47768,100 1239.27679,100 C1239.07589,100 1238.90848,99.9330364 1238.77455,99.7991071 L1234.63616,95.6607143 C1233.20312,96.8392916 1231.56251,97.4285714 1229.71429,97.4285714 C1227.58481,97.4285714 1225.76675,96.6752307 1224.26004,95.1685268 C1222.75334,93.6618228 1222,91.8437606 1222,89.7142857 C1222,87.5848108 1222.75334,85.7667486 1224.26004,84.2600446 C1225.76675,82.7533407 1227.58481,82 1229.71429,82 C1231.84376,82 1233.66182,82.7533407 1235.16853,84.2600446 C1236.67523,85.7667486 1237.42857,87.5848108 1237.42857,89.7142857 C1237.42857,91.5625092 1236.83929,93.2031178 1235.66071,94.6361607 L1239.79911,98.7544643 Z M1232.14509,95.5 C1232.89509,95.1785698 1233.56138,94.7265654 1234.14397,94.1439732 C1234.72657,93.561381 1235.17857,92.895093 1235.5,92.1450893 C1235.82143,91.3816926 1235.98214,90.5714329 1235.98214,89.7142857 C1235.98214,88.8571386 1235.82143,88.0468788 1235.5,87.2834821 C1235.17857,86.5334784 1234.72657,85.8671904 1234.14397,85.2845982 C1233.56138,84.702006 1232.89509,84.2500016 1232.14509,83.9285714 C1231.38169,83.6071412 1230.57143,83.4464286 1229.71429,83.4464286 C1228.85714,83.4464286 1228.04688,83.6071412 1227.28348,83.9285714 C1226.53348,84.2500016 1225.86719,84.702006 1225.2846,85.2845982 C1224.70201,85.8671904 1224.2567,86.5334784 1223.94866,87.2834821 C1223.61384,88.0468788 1223.44643,88.8571386 1223.44643,89.7142857 C1223.44643,90.5714329 1223.61384,91.3816926 1223.94866,92.1450893 C1224.2567,92.895093 1224.70201,93.561381 1225.2846,94.1439732 C1225.86719,94.7265654 1226.53348,95.1785698 1227.28348,95.5 C1228.04688,95.8214302 1228.85714,95.9821429 1229.71429,95.9821429 C1230.57143,95.9821429 1231.38169,95.8214302 1232.14509,95.5 Z" id="search"></path>
        </g>
    </g>
</svg>