<svg width="18" height="18" xmlns="http://www.w3.org/2000/svg">
 <!-- Generator: Sketch 52.2 (67145) - http://www.bohemiancoding.com/sketch -->

 <title>search</title>
 <desc>Created with Sketch.</desc>
 <g>
  <title>background</title>
  <rect fill="none" id="canvas_background" height="402" width="582" y="-1" x="-1"/>
 </g>
 <g>
  <title>Layer 1</title>
  <g fill-rule="evenodd" fill="none" id="Desktop">
   <g fill="#3C3C3C" id="Main-Page/1">
    <path fill="#34b500" id="search" d="m17.79911,16.75446c0.13393,0.14733 0.20089,0.32143 0.20089,0.52233c0,0.20089 -0.06696,0.375 -0.20089,0.52232c-0.14733,0.13393 -0.32143,0.20089 -0.52232,0.20089c-0.2009,0 -0.36831,-0.06696 -0.50224,-0.20089l-4.13839,-4.1384c-1.43304,1.17858 -3.07365,1.76786 -4.92187,1.76786c-2.12948,0 -3.94754,-0.75334 -5.45425,-2.26004c-1.5067,-1.50671 -2.26004,-3.32477 -2.26004,-5.45424c0,-2.12948 0.75334,-3.94754 2.26004,-5.45425c1.50671,-1.5067 3.32477,-2.26004 5.45425,-2.26004c2.12947,0 3.94753,0.75334 5.45424,2.26004c1.5067,1.50671 2.26004,3.32477 2.26004,5.45425c0,1.84822 -0.58928,3.48883 -1.76786,4.92187l4.1384,4.1183zm-7.65402,-3.25446c0.75,-0.32143 1.41629,-0.77343 1.99888,-1.35603c0.5826,-0.58259 1.0346,-1.24888 1.35603,-1.99888c0.32143,-0.7634 0.48214,-1.57366 0.48214,-2.4308c0,-0.85715 -0.16071,-1.66741 -0.48214,-2.43081c-0.32143,-0.75 -0.77343,-1.41629 -1.35603,-1.99888c-0.58259,-0.58259 -1.24888,-1.0346 -1.99888,-1.35603c-0.7634,-0.32143 -1.57366,-0.48214 -2.4308,-0.48214c-0.85715,0 -1.66741,0.16071 -2.43081,0.48214c-0.75,0.32143 -1.41629,0.77344 -1.99888,1.35603c-0.58259,0.58259 -1.0279,1.24888 -1.33594,1.99888c-0.33482,0.7634 -0.50223,1.57366 -0.50223,2.43081c0,0.85714 0.16741,1.6674 0.50223,2.4308c0.30804,0.75 0.75335,1.41629 1.33594,1.99888c0.58259,0.5826 1.24888,1.0346 1.99888,1.35603c0.7634,0.32143 1.57366,0.48214 2.43081,0.48214c0.85714,0 1.6674,-0.16071 2.4308,-0.48214z"/>
   </g>
  </g>
 </g>
</svg>