<?xml version="1.0" encoding="UTF-8"?>
<svg width="26px" height="23px" viewBox="0 0 26 23" version="1.1" xmlns="http://www.w3.org/2000/svg" xmlns:xlink="http://www.w3.org/1999/xlink">
    <!-- Generator: Sketch 52.2 (67145) - http://www.bohemiancoding.com/sketch -->
    <title>heart-o - anticon</title>
    <desc>Created with Sketch.</desc>
    <g id="Desktop" stroke="none" stroke-width="1" fill="none" fill-rule="evenodd">
        <g id="Main-Page/1" transform="translate(-327.000000, -1140.000000)" fill="#E53B50" stroke="#FFFFFF" stroke-width="0.6">
            <g id="Products" transform="translate(60.000000, 1041.000000)">
                <g id="1-copy" transform="translate(0.000000, 80.000000)">
                    <path d="M291.437521,24.3125 C291.812509,25.2187545 292,26.17187 292,27.171875 C292,28.2656305 291.773448,29.2968702 291.320338,30.265625 C290.867228,31.2343798 290.234445,32.0546841 289.421972,32.7265625 C288.828241,33.2734402 287.297064,34.6718637 284.828394,36.921875 C282.51597,39.0312605 281.101974,40.3203102 280.586366,40.7890625 C280.414497,40.9296882 280.219194,41 280.000451,41 C279.781708,41 279.586405,40.9296882 279.414535,40.7890625 C278.648935,40.1015591 276.641218,38.2656399 273.391324,35.28125 C271.844499,33.874993 270.961729,33.0781259 270.742986,32.890625 C270.680488,32.8281247 270.610179,32.7656253 270.532056,32.703125 C269.735207,32.0312466 269.118049,31.2148486 268.680563,30.2539062 C268.243078,29.2929639 268.016526,28.2734429 268.000901,27.1953125 C267.985277,26.2109326 268.172768,25.2578171 268.56338,24.3359375 C268.922744,23.4609331 269.438344,22.6875034 270.110197,22.015625 C271.422654,20.6718683 272.992892,20 274.820958,20 C275.820925,20 276.770099,20.2187478 277.668507,20.65625 C278.566915,21.0937522 279.344222,21.7109335 280.000451,22.5078125 C280.656679,21.7109335 281.433986,21.0937522 282.332394,20.65625 C283.230803,20.2187478 284.179976,20 285.179944,20 C287.008009,20 288.578247,20.6640559 289.890704,21.9921875 C290.562557,22.6640659 291.078158,23.4374956 291.437521,24.3125 Z" id="heart-o---anticon"></path>
                </g>
            </g>
        </g>
    </g>
</svg>