<?xml version="1.0" encoding="UTF-8"?>
<svg width="26px" height="23px" viewBox="0 0 26 23" version="1.1" xmlns="http://www.w3.org/2000/svg" xmlns:xlink="http://www.w3.org/1999/xlink">
    <!-- Generator: Sketch 52.2 (67145) - http://www.bohemiancoding.com/sketch -->
    <title>heart-o - anticon</title>
    <desc>Created with Sketch.</desc>
    <g id="Desktop" stroke="none" stroke-width="1" fill="none" fill-rule="evenodd" opacity="0.303794643">
        <g id="Main-Page/1" transform="translate(-327.000000, -1140.000000)" fill="#000000" stroke="#FFFFFF" stroke-width="0.6">
            <g id="Products" transform="translate(60.000000, 1041.000000)">
                <g id="1-copy" transform="translate(0.000000, 80.000000)">
                    <path d="M291.437521,24.3125 C291.812509,25.2187545 292,26.17187 292,27.171875 C292,28.2656305 291.773448,29.2968702 291.320338,30.265625 C290.867228,31.2343798 290.234445,32.0546841 289.421972,32.7265625 C288.828241,33.2734402 287.297064,34.6718637 284.828394,36.921875 C282.51597,39.0312605 281.101974,40.3203102 280.586366,40.7890625 C280.414497,40.9296882 280.219194,41 280.000451,41 C279.781708,41 279.586405,40.9296882 279.414535,40.7890625 C278.648935,40.1015591 276.641218,38.2656399 273.391324,35.28125 C271.844499,33.874993 270.961729,33.0781259 270.742986,32.890625 C270.680488,32.8281247 270.610179,32.7656253 270.532056,32.703125 C269.735207,32.0312466 269.118049,31.2148486 268.680563,30.2539062 C268.243078,29.2929639 268.016526,28.2734429 268.000901,27.1953125 C267.985277,26.2109326 268.172768,25.2578171 268.56338,24.3359375 C268.922744,23.4609331 269.438344,22.6875034 270.110197,22.015625 C271.422654,20.6718683 272.992892,20 274.820958,20 C275.820925,20 276.770099,20.2187478 277.668507,20.65625 C278.566915,21.0937522 279.344222,21.7109335 280.000451,22.5078125 C280.656679,21.7109335 281.433986,21.0937522 282.332394,20.65625 C283.230803,20.2187478 284.179976,20 285.179944,20 C287.008009,20 288.578247,20.6640559 289.890704,21.9921875 C290.562557,22.6640659 291.078158,23.4374956 291.437521,24.3125 Z M281.312901,23.75 C280.984787,24.1875022 280.547308,24.40625 280.000451,24.40625 C279.453594,24.40625 279.016114,24.1875022 278.688,23.75 C278.219265,23.140622 277.645074,22.6640642 276.965408,22.3203125 C276.285743,21.9765608 275.570933,21.8046875 274.820958,21.8046875 C273.492876,21.8046875 272.344493,22.2968701 271.375775,23.28125 C270.875791,23.7812525 270.492997,24.3593717 270.22738,25.015625 C269.930515,25.7031284 269.789897,26.4296837 269.805521,27.1953125 C269.805521,27.9921915 269.969576,28.7539026 270.29769,29.4804688 C270.625804,30.2070349 271.094532,30.82031 271.703887,31.3203125 C271.735136,31.3671877 271.797633,31.4218747 271.89138,31.484375 C271.907005,31.5000001 271.922629,31.5234373 271.938254,31.5546875 C272.219494,31.8046887 272.953834,32.4687446 274.141296,33.546875 L275.266254,34.578125 C277.51618,36.6250102 279.09423,38.0624959 280.000451,38.890625 C280.719177,38.2343717 281.922245,37.1406327 283.60969,35.609375 C285.718996,33.6562402 287.257986,32.2500043 288.226704,31.390625 L288.273577,31.34375 C288.867308,30.8593726 289.336036,30.2578161 289.679775,29.5390625 C290.023513,28.7890588 290.19538,28.0000041 290.19538,27.171875 C290.19538,26.4062462 290.054762,25.6796909 289.773521,24.9921875 C289.507905,24.3359342 289.12511,23.757815 288.625127,23.2578125 C287.656408,22.2890577 286.508025,21.8046875 285.179944,21.8046875 C284.429968,21.8046875 283.715158,21.9726546 283.035493,22.3085938 C282.355828,22.6445329 281.781636,23.1249969 281.312901,23.75 Z" id="heart-o---anticon"></path>
                </g>
            </g>
        </g>
    </g>
</svg>