<?xml version="1.0" encoding="UTF-8"?>
<svg width="21px" height="24px" viewBox="0 0 21 24" version="1.1" xmlns="http://www.w3.org/2000/svg" xmlns:xlink="http://www.w3.org/1999/xlink">
    <!-- Generator: Sketch 52.2 (67145) - http://www.bohemiancoding.com/sketch -->
    <title>user</title>
    <desc>Created with Sketch.</desc>
    <g id="Desktop" stroke="none" stroke-width="1" fill="none" fill-rule="evenodd">
        <g id="Main-Page/1" transform="translate(-1279.000000, -79.000000)" fill="#3C3C3C" fill-rule="nonzero" stroke="#FFFFFF" stroke-width="0.6">
            <g id="user" transform="translate(1280.000000, 80.000000)">
                <path d="M19.2,21 C19.2,21.5522847 18.7224371,22 18.1333333,22 C17.5442296,22 17.0666667,21.5522847 17.0666667,21 C17.0666667,17.1340067 13.7237261,14 9.6,14 C5.47627387,14 2.13333333,17.1340067 2.13333333,21 C2.13333333,21.5522847 1.6557704,22 1.06666667,22 C0.477562933,22 0,21.5522847 0,21 C0,16.0294372 4.2980664,12 9.6,12 C14.9019336,12 19.2,16.0294372 19.2,21 Z M9.6,11 C6.35992949,11 3.73333333,8.5375661 3.73333333,5.5 C3.73333333,2.4624339 6.35992949,0 9.6,0 C12.8400705,0 15.4666667,2.4624339 15.4666667,5.5 C15.4666667,8.5375661 12.8400705,11 9.6,11 Z M9.6,9 C11.661863,9 13.3333333,7.4329966 13.3333333,5.5 C13.3333333,3.5670034 11.661863,2 9.6,2 C7.53813696,2 5.86666667,3.5670034 5.86666667,5.5 C5.86666667,7.4329966 7.53813696,9 9.6,9 Z" id="Shape"></path>
            </g>
        </g>
    </g>
</svg>