<svg width="21" height="24" xmlns="http://www.w3.org/2000/svg">
 <!-- Generator: Sketch 52.2 (67145) - http://www.bohemiancoding.com/sketch -->

 <title>user</title>
 <desc>Created with Sketch.</desc>
 <g>
  <title>background</title>
  <rect fill="none" id="canvas_background" height="402" width="582" y="-1" x="-1"/>
 </g>
 <g>
  <title>Layer 1</title>
  <g fill-rule="evenodd" fill="none" id="Desktop">
   <g stroke-width="0.6" stroke="#FFFFFF" fill-rule="nonzero" fill="#3C3C3C" id="Main-Page/1">
    <g id="user">
     <path stroke-width="0" stroke="#000" fill="#34b500" id="Shape" d="m20.2,22c0,0.55228 -0.47756,1 -1.06667,1c-0.5891,0 -1.06666,-0.44772 -1.06666,-1c0,-3.86599 -3.34294,-7 -7.46667,-7c-4.12373,0 -7.46667,3.13401 -7.46667,7c0,0.55228 -0.47756,1 -1.06666,1c-0.58911,0 -1.06667,-0.44772 -1.06667,-1c0,-4.97056 4.29807,-9 9.6,-9c5.30193,0 9.6,4.02944 9.6,9zm-9.6,-10c-3.24007,0 -5.86667,-2.46243 -5.86667,-5.5c0,-3.03757 2.6266,-5.5 5.86667,-5.5c3.24007,0 5.86667,2.46243 5.86667,5.5c0,3.03757 -2.6266,5.5 -5.86667,5.5zm0,-2c2.06186,0 3.73333,-1.567 3.73333,-3.5c0,-1.933 -1.67147,-3.5 -3.73333,-3.5c-2.06186,0 -3.73333,1.567 -3.73333,3.5c0,1.933 1.67147,3.5 3.73333,3.5z"/>
    </g>
   </g>
  </g>
 </g>
</svg>