<?xml version="1.0" encoding="UTF-8"?>
<svg width="14px" height="14px" viewBox="0 0 14 14" version="1.1" xmlns="http://www.w3.org/2000/svg" xmlns:xlink="http://www.w3.org/1999/xlink">
    <!-- Generator: Sketch 52.2 (67145) - http://www.bohemiancoding.com/sketch -->
    <title>w</title>
    <desc>Created with Sketch.</desc>
    <g id="Desktop" stroke="none" stroke-width="1" fill="none" fill-rule="evenodd" opacity="0.6">
        <g id="Main-Page/1" transform="translate(-515.000000, -3431.000000)" fill="#FFFFFF">
            <g id="Footer" transform="translate(0.000000, 3218.000000)">
                <path d="M520.214844,217.386719 C520.253906,217.484375 520.307617,217.630858 520.375977,217.826172 C520.444336,218.021485 520.512695,218.197265 520.581055,218.353516 C520.649414,218.509766 520.683594,218.597656 520.683594,218.617188 C520.722656,218.734376 520.722656,218.832031 520.683594,218.910156 C520.625,219.027344 520.566407,219.115234 520.507812,219.173828 L520.244141,219.4375 C520.126953,219.554688 520.097656,219.671874 520.15625,219.789062 C520.351563,220.179689 520.644529,220.560545 521.035156,220.931641 C521.386721,221.263674 521.816404,221.556639 522.324219,221.810547 C522.48047,221.888672 522.597656,221.878907 522.675781,221.78125 C522.714844,221.742187 522.807616,221.639649 522.954102,221.473633 C523.100587,221.307616 523.193359,221.205078 523.232422,221.166016 C523.330079,221.048828 523.45703,221.019531 523.613281,221.078125 C523.671875,221.097656 523.85742,221.195312 524.169922,221.371094 C524.482423,221.546876 524.658203,221.644531 524.697266,221.664062 C524.892579,221.761719 525,221.830078 525.019531,221.869141 C525.078125,221.986329 525.029298,222.240232 524.873047,222.630859 C524.814453,222.806642 524.658204,222.967773 524.404297,223.114258 C524.150389,223.260743 523.935548,223.34375 523.759766,223.363281 C523.740234,223.421875 523.583986,223.431641 523.291016,223.392578 C522.998045,223.353515 522.500004,223.187501 521.796875,222.894531 C521.58203,222.796875 521.362306,222.679688 521.137695,222.542969 C520.913085,222.406249 520.717774,222.259766 520.551758,222.103516 C520.385741,221.947265 520.22461,221.791016 520.068359,221.634766 C519.912109,221.478515 519.775391,221.322266 519.658203,221.166016 C519.541015,221.009765 519.44336,220.873047 519.365234,220.755859 C519.287109,220.638671 519.21875,220.53125 519.160156,220.433594 L519.072266,220.316406 C518.642576,219.749997 518.4375,219.183597 518.457031,218.617188 C518.476563,218.128904 518.691404,217.67969 519.101562,217.269531 C519.238282,217.132812 519.384765,217.064453 519.541016,217.064453 L519.833984,217.064453 C520.009767,217.064453 520.136718,217.171874 520.214844,217.386719 Z M525.576172,216.361328 C524.462885,215.287104 523.16407,214.75 521.679688,214.75 C520.195305,214.75 518.89649,215.287104 517.783203,216.361328 C516.708979,217.435552 516.171875,218.714836 516.171875,220.199219 C516.171875,221.214849 516.435544,222.152339 516.962891,223.011719 L517.197266,223.392578 L517.050781,223.802734 L516.494141,225.472656 L518.28125,224.916016 L518.662109,224.798828 L519.013672,224.974609 C519.85352,225.42383 520.742183,225.648438 521.679688,225.648438 C523.183601,225.648438 524.482416,225.121099 525.576172,224.066406 C526.650396,222.992182 527.1875,221.703133 527.1875,220.199219 C527.1875,218.714836 526.650396,217.435552 525.576172,216.361328 Z M517.109375,215.6875 C518.378913,214.437494 519.902335,213.8125 521.679688,213.8125 C523.45704,213.8125 524.97558,214.432611 526.235352,215.672852 C527.495123,216.913092 528.125,218.421866 528.125,220.199219 C528.125,221.976571 527.495123,223.485345 526.235352,224.725586 C524.97558,225.965827 523.45704,226.585938 521.679688,226.585938 C520.605463,226.585938 519.570317,226.322268 518.574219,225.794922 L515,226.9375 L516.171875,223.509766 C515.546872,222.474604 515.234375,221.3711 515.234375,220.199219 C515.234375,218.421866 515.859369,216.917975 517.109375,215.6875 Z" id="w"></path>
            </g>
        </g>
    </g>
</svg>