<?xml version="1.0" encoding="UTF-8"?>
<svg width="15px" height="12px" viewBox="0 0 15 12" version="1.1" xmlns="http://www.w3.org/2000/svg" xmlns:xlink="http://www.w3.org/1999/xlink">
    <!-- Generator: Sketch 52.2 (67145) - http://www.bohemiancoding.com/sketch -->
    <title>y</title>
    <desc>Created with Sketch.</desc>
    <g id="Desktop" stroke="none" stroke-width="1" fill="none" fill-rule="evenodd" opacity="0.6">
        <g id="Main-Page/1" transform="translate(-515.000000, -3399.000000)" fill="#FFFFFF">
            <g id="Footer" transform="translate(0.000000, 3218.000000)">
                <path d="M529.912109,184.240234 C529.970703,185.294927 530,186.339839 530,187.375 C530,188.410161 529.970703,189.455073 529.912109,190.509766 C529.912109,191.173831 529.702151,191.735349 529.282227,192.194336 C528.862303,192.653323 528.349612,192.882812 527.744141,192.882812 C526.240227,192.960938 524.492197,193 522.5,193 C520.507803,193 518.759773,192.960938 517.255859,192.882812 C516.650388,192.882812 516.137697,192.653323 515.717773,192.194336 C515.297849,191.735349 515.087891,191.173831 515.087891,190.509766 C515.029297,189.455073 515,188.410161 515,187.375 C515,186.691403 515.039062,185.646491 515.117188,184.240234 C515.117188,183.576169 515.322264,183.014651 515.732422,182.555664 C516.14258,182.096677 516.650388,181.867188 517.255859,181.867188 C518.681648,181.789062 520.341787,181.75 522.236328,181.75 L522.763672,181.75 C524.658213,181.75 526.318352,181.789062 527.744141,181.867188 C528.349612,181.867188 528.862303,182.096677 529.282227,182.555664 C529.702151,183.014651 529.912109,183.576169 529.912109,184.240234 Z M521.064453,190.246094 L525.3125,187.375 L521.064453,184.474609 L521.064453,190.246094 Z" id="y"></path>
            </g>
        </g>
    </g>
</svg>